<?xml version="1.0" encoding="UTF-8"?>
<svg version="1.1" xmlns="http://www.w3.org/2000/svg" width="256" height="256">
<path d="M0 0 C84.48 0 168.96 0 256 0 C256 84.48 256 168.96 256 256 C171.52 256 87.04 256 0 256 C0 171.52 0 87.04 0 0 Z " fill="#FEFEFE" transform="translate(0,0)"/>
<path d="M0 0 C2.62391402 3.93587103 2.46155117 7.86531515 1.625 12.4375 C-0.05215873 15.80556465 -2.40967082 17.84757661 -5.625 19.8125 C-10.90382108 21.01223206 -15.5667428 21.08574315 -20.6875 19.25 C-24.61743542 16.59957844 -26.77536238 13.33695642 -29.375 9.4375 C-30.35620464 12.49013664 -30.35620464 14.38486336 -29.375 17.4375 C-32.1875 17.6875 -32.1875 17.6875 -35.375 17.4375 C-36.0246875 16.4784375 -36.0246875 16.4784375 -36.6875 15.5 C-38.81597289 12.89853314 -39.79745094 13.028245 -43.0625 12.6875 C-44.49888098 12.58670133 -45.9363506 12.49782073 -47.375 12.4375 C-47.375 14.0875 -47.375 15.7375 -47.375 17.4375 C-49.355 17.4375 -51.335 17.4375 -53.375 17.4375 C-53.375 11.1675 -53.375 4.8975 -53.375 -1.5625 C-50.14442783 -1.69773325 -46.9195331 -1.79671546 -43.6875 -1.875 C-42.77548828 -1.91689453 -41.86347656 -1.95878906 -40.92382812 -2.00195312 C-34.24468432 -2.1233921 -34.24468432 -2.1233921 -31.61474609 -0.42724609 C-30.23046875 0.95703125 -30.23046875 0.95703125 -28.375 3.4375 C-27.91609375 2.94378906 -27.4571875 2.45007813 -26.984375 1.94140625 C-26.37078125 1.30074219 -25.7571875 0.66007812 -25.125 0 C-24.52171875 -0.63808594 -23.9184375 -1.27617188 -23.296875 -1.93359375 C-16.3522511 -7.81958596 -6.63082304 -4.36238358 0 0 Z " fill="#212122" transform="translate(162.375,112.5625)"/>
<path d="M0 0 C3.0525 -0.061875 6.105 -0.12375 9.25 -0.1875 C10.68327637 -0.22846802 10.68327637 -0.22846802 12.14550781 -0.27026367 C18.33071275 -0.33112106 18.33071275 -0.33112106 21.59765625 1.28515625 C23.8113552 3.99215859 23.18702073 6.63362681 23 10 C23.33 10.33 23.66 10.66 24 11 C24.3125 13.375 24.3125 13.375 24 16 C21.1282462 18.74510669 19.15861665 19.36843494 15.234375 19.29296875 C14.34492188 19.28330078 13.45546875 19.27363281 12.5390625 19.26367188 C11.61867188 19.23853516 10.69828125 19.21339844 9.75 19.1875 C8.81414063 19.17396484 7.87828125 19.16042969 6.9140625 19.14648438 C4.60912779 19.11120476 2.30448995 19.05739966 0 19 C0 12.73 0 6.46 0 0 Z " fill="#010101" transform="translate(1,111)"/>
<path d="M0 0 C2.64 0 5.28 0 8 0 C10.09375 2.1171875 10.09375 2.1171875 11.5 4.875 C12.22703125 6.23238281 12.22703125 6.23238281 12.96875 7.6171875 C14 10 14 10 14 12 C16.54131358 9.69716746 18.07110295 7.32686207 19.6875 4.3125 C20.12449219 3.50425781 20.56148437 2.69601563 21.01171875 1.86328125 C21.33785156 1.24839844 21.66398437 0.63351563 22 0 C24.97 0 27.94 0 31 0 C31 6.27 31 12.54 31 19 C28.69 19 26.38 19 24 19 C23.67 16.36 23.34 13.72 23 11 C22.70867187 11.5775 22.41734375 12.155 22.1171875 12.75 C20.86950461 15.00995391 19.67200362 17.02988721 18 19 C14.6875 19.5 14.6875 19.5 12 19 C10.35 16.03 8.7 13.06 7 10 C6.67 12.97 6.34 15.94 6 19 C4.02 19 2.04 19 0 19 C0 12.73 0 6.46 0 0 Z " fill="#0D0D0D" transform="translate(196,111)"/>
<path d="M0 0 C3.25049988 -0.08096264 6.49898234 -0.14048115 9.75 -0.1875 C11.13058594 -0.22520508 11.13058594 -0.22520508 12.5390625 -0.26367188 C13.42851563 -0.27333984 14.31796875 -0.28300781 15.234375 -0.29296875 C16.05131836 -0.3086792 16.86826172 -0.32438965 17.70996094 -0.34057617 C20.60234345 0.08958093 21.94336026 0.93606928 24 3 C24.34945057 7.40307722 24.06070414 10.75718344 23 15 C23.37907282 17.18703385 23.37907282 17.18703385 24 19 C21.1875 19.25 21.1875 19.25 18 19 C17.3503125 18.0409375 17.3503125 18.0409375 16.6875 17.0625 C14.55902711 14.46103314 13.57754906 14.590745 10.3125 14.25 C8.87611902 14.14920133 7.4386494 14.06032073 6 14 C6 15.65 6 17.3 6 19 C4.02 19 2.04 19 0 19 C0 12.73 0 6.46 0 0 Z " fill="#0B0B0B" transform="translate(109,111)"/>
<path d="M0 0 C0.78439453 -0.00386719 1.56878906 -0.00773437 2.37695312 -0.01171875 C3.19228516 -0.00011719 4.00761719 0.01148437 4.84765625 0.0234375 C6.06485352 0.00603516 6.06485352 0.00603516 7.30664062 -0.01171875 C10.86230536 0.00578247 13.28750553 0.07431795 16.4765625 1.734375 C17.91015625 3.3984375 17.91015625 3.3984375 17.91015625 6.3984375 C15.91060879 6.44098106 13.90973989 6.43924533 11.91015625 6.3984375 C11.58015625 6.0684375 11.25015625 5.7384375 10.91015625 5.3984375 C8.89421043 5.16415972 6.87168225 4.98507626 4.84765625 4.8359375 C3.19056641 4.71025391 3.19056641 4.71025391 1.5 4.58203125 C0.64535156 4.52144531 -0.20929688 4.46085937 -1.08984375 4.3984375 C-1.08984375 5.3884375 -1.08984375 6.3784375 -1.08984375 7.3984375 C-0.22101563 7.36363281 0.6478125 7.32882813 1.54296875 7.29296875 C12.98924237 7.02409655 12.98924237 7.02409655 17.91015625 10.3984375 C17.91015625 12.7084375 17.91015625 15.0184375 17.91015625 17.3984375 C13.52363111 19.87761687 9.78044632 19.73052761 4.84765625 19.7109375 C4.03232422 19.72705078 3.21699219 19.74316406 2.37695312 19.75976562 C1.59255859 19.76041016 0.80816406 19.76105469 0 19.76171875 C-0.71293213 19.76469971 -1.42586426 19.76768066 -2.16040039 19.77075195 C-4.67211545 19.28607962 -5.57187435 18.42924647 -7.08984375 16.3984375 C-7.08984375 15.4084375 -7.08984375 14.4184375 -7.08984375 13.3984375 C-5.09029629 13.35589394 -3.08942739 13.35762967 -1.08984375 13.3984375 C-0.75984375 13.7284375 -0.42984375 14.0584375 -0.08984375 14.3984375 C1.92610207 14.63271528 3.94863025 14.81179874 5.97265625 14.9609375 C7.07738281 15.04472656 8.18210938 15.12851563 9.3203125 15.21484375 C10.60228516 15.30572266 10.60228516 15.30572266 11.91015625 15.3984375 C11.58015625 14.4084375 11.25015625 13.4184375 10.91015625 12.3984375 C9.77835938 12.27726562 8.6465625 12.15609375 7.48046875 12.03125 C5.99864594 11.86243474 4.51687783 11.69313895 3.03515625 11.5234375 C1.91560547 11.40548828 1.91560547 11.40548828 0.7734375 11.28515625 C-4.86328125 10.625 -4.86328125 10.625 -7.08984375 8.3984375 C-7.40234375 5.9609375 -7.40234375 5.9609375 -7.08984375 3.3984375 C-4.93490525 0.61037915 -3.48035481 0.0165188 0 0 Z " fill="#090909" transform="translate(237.08984375,110.6015625)"/>
<path d="M0 0 C2.64 0 5.28 0 8 0 C9.67007687 2.97726736 11.33548572 5.9571197 13 8.9375 C13.47695313 9.78763672 13.95390625 10.63777344 14.4453125 11.51367188 C14.89648438 12.32255859 15.34765625 13.13144531 15.8125 13.96484375 C16.23144531 14.7137085 16.65039062 15.46257324 17.08203125 16.23413086 C18 18 18 18 18 19 C15.69 19 13.38 19 11 19 C11 18.34 11 17.68 11 17 C8.8537974 17.14029419 6.70803782 17.28738164 4.5625 17.4375 C3.36753906 17.51871094 2.17257813 17.59992188 0.94140625 17.68359375 C-1.88570244 17.67656114 -1.88570244 17.67656114 -3 19 C-5.33297433 19.04092937 -7.66705225 19.04241723 -10 19 C-9.16855469 17.44539063 -9.16855469 17.44539063 -8.3203125 15.859375 C-7.58851391 14.48959816 -6.85674462 13.11980567 -6.125 11.75 C-5.76019531 11.06808594 -5.39539063 10.38617188 -5.01953125 9.68359375 C-3.30606427 6.4747374 -1.60006013 3.26749122 0 0 Z " fill="#080808" transform="translate(36,111)"/>
<path d="M0 0 C1.30710937 -0.04898438 2.61421875 -0.09796875 3.9609375 -0.1484375 C8.45750014 0.49392859 9.87607365 1.84066612 12.625 5.375 C12.625 6.035 12.625 6.695 12.625 7.375 C9.25 7.5 9.25 7.5 5.625 7.375 C4.965 6.715 4.305 6.055 3.625 5.375 C1.44962316 5.09457016 1.44962316 5.09457016 -0.9375 5.1875 C-1.74316406 5.19394531 -2.54882812 5.20039062 -3.37890625 5.20703125 C-5.37379885 5.15869088 -5.37379885 5.15869088 -6.375 6.375 C-6.54166667 9.875 -6.54166667 9.875 -6.375 13.375 C-4.78605928 14.96394072 -3.12698576 14.54498411 -0.9375 14.5625 C-0.13441406 14.57667969 0.66867188 14.59085938 1.49609375 14.60546875 C3.84130633 14.57662356 3.84130633 14.57662356 5.625 12.375 C9.25 12.25 9.25 12.25 12.625 12.375 C11.16962935 16.98367373 11.16962935 16.98367373 9.04296875 18.51171875 C5.6156201 19.73537635 2.28329255 19.78299942 -1.3125 19.8125 C-2.36727539 19.86180664 -2.36727539 19.86180664 -3.44335938 19.91210938 C-7.36098692 19.95249729 -9.19142936 19.51364414 -12.34375 17.1328125 C-14.96307747 13.57657175 -15.04571394 11.72534056 -14.8046875 7.46484375 C-14.1777204 4.41550378 -12.9071477 3.11132985 -10.375 1.375 C-6.8017532 0.18391773 -3.76663059 0.09620078 0 0 Z " fill="#070707" transform="translate(68.375,110.625)"/>
<path d="M0 0 C1.98 0 3.96 0 6 0 C6.33 1.98 6.66 3.96 7 6 C7.4125 5.566875 7.825 5.13375 8.25 4.6875 C11.54172757 1.51333413 13.72483755 -0.42540281 18.4375 -0.375 C19.613125 -0.25125 20.78875 -0.1275 22 0 C19.15063897 3.00765886 16.76488042 5.27845212 13 7 C13.47050781 7.53109375 13.94101563 8.0621875 14.42578125 8.609375 C15.04839844 9.31578125 15.67101562 10.0221875 16.3125 10.75 C16.92738281 11.44609375 17.54226562 12.1421875 18.17578125 12.859375 C19.87314734 14.85114506 21.45477809 16.88898915 23 19 C15.9771641 19.72650027 15.9771641 19.72650027 13.203125 17.6640625 C11.76299605 16.14551069 10.37814348 14.57502112 9 13 C8.34 13 7.68 13 7 13 C6.67 14.98 6.34 16.96 6 19 C4.02 19 2.04 19 0 19 C0 12.73 0 6.46 0 0 Z " fill="#040404" transform="translate(84,111)"/>
<path d="M0 0 C0.33 0 0.66 0 1 0 C1 6.27 1 12.54 1 19 C0.67 19 0.34 19 0 19 C-0.495 16.525 -0.495 16.525 -1 14 C-1.99 14.495 -1.99 14.495 -3 15 C-3 14.34 -3 13.68 -3 13 C-5.91652174 12.83318891 -5.91652174 12.83318891 -9 13 C-9.66 13.66 -10.32 14.32 -11 15 C-13.09375 15.265625 -13.09375 15.265625 -15.5 15.25 C-16.2940625 15.25515625 -17.088125 15.2603125 -17.90625 15.265625 C-20 15 -20 15 -22 13 C-22.25 9.5 -22.25 9.5 -22 6 C-20 4 -20 4 -17.90625 3.734375 C-16.71515625 3.74210937 -16.71515625 3.74210937 -15.5 3.75 C-14.7059375 3.74484375 -13.911875 3.7396875 -13.09375 3.734375 C-11 4 -11 4 -9 6 C-6.31160615 6.26991906 -3.70858064 6.08737357 -1 6 C-0.67 4.02 -0.34 2.04 0 0 Z " fill="#EBEBEB" transform="translate(83,111)"/>
<path d="M0 0 C-0.33 2.97 -0.66 5.94 -1 9 C-3.64 8.34 -6.28 7.68 -9 7 C-9 7.66 -9 8.32 -9 9 C-7.68 9.66 -6.36 10.32 -5 11 C-5 11.99 -5 12.98 -5 14 C-9.64849515 16.3992233 -13.91086074 16.19957409 -19 16 C-19.33 14.68 -19.66 13.36 -20 12 C-19.34 12 -18.68 12 -18 12 C-18 10.35 -18 8.7 -18 7 C-16.02 6.67 -14.04 6.34 -12 6 C-11.67 4.35 -11.34 2.7 -11 1 C-6.87831311 -0.62950412 -4.29299643 -1.26264601 0 0 Z " fill="#A3A2A1" transform="translate(194,117)"/>
<path d="M0 0 C0.90105469 0.01804687 1.80210937 0.03609375 2.73046875 0.0546875 C3.41753906 0.07789062 4.10460937 0.10109375 4.8125 0.125 C4.4825 3.095 4.1525 6.065 3.8125 9.125 C2.636875 9.2178125 2.636875 9.2178125 1.4375 9.3125 C0.57125 9.580625 -0.295 9.84875 -1.1875 10.125 C-1.8475 11.775 -2.5075 13.425 -3.1875 15.125 C-6.8175 15.455 -10.4475 15.785 -14.1875 16.125 C-14.1875 13.485 -14.1875 10.845 -14.1875 8.125 C-11.42485711 7.52767181 -9.02717231 7.125 -6.1875 7.125 C-7.1775 6.465 -8.1675 5.805 -9.1875 5.125 C-7.51320877 0.1021263 -4.80985821 -0.12493138 0 0 Z " fill="#BFB1D2" transform="translate(178.1875,107.875)"/>
<path d="M0 0 C0.66 0.66 1.32 1.32 2 2 C1.70740515 4.00636471 1.37366113 6.00714063 1 8 C1.33 8.66 1.66 9.32 2 10 C1.34 10 0.68 10 0 10 C0.020625 10.804375 0.04125 11.60875 0.0625 12.4375 C0 15 0 15 -1 16 C-2.99958364 16.04080783 -5.00045254 16.04254356 -7 16 C-7 17.65 -7 19.3 -7 21 C-7.66 21 -8.32 21 -9 21 C-8.67 22.32 -8.34 23.64 -8 25 C-13.5 23.53333333 -13.5 23.53333333 -15.875 21 C-17 19 -17 19 -17 17 C-17.66 16.67 -18.32 16.34 -19 16 C-15.3791799 14.98617037 -11.72188582 14.50102309 -8 14 C-7.34 12.35 -6.68 10.7 -6 9 C-4.35 9 -2.7 9 -1 9 C-0.67 6.03 -0.34 3.06 0 0 Z " fill="#CECDCC" transform="translate(183,108)"/>
<path d="M0 0 C2 0 2 0 3.625 1.1875 C5.42149467 3.55560662 5.23521845 5.09897251 5 8 C4.34 8 3.68 8 3 8 C3 8.66 3 9.32 3 10 C0.69 10 -1.62 10 -4 10 C-4 10.66 -4 11.32 -4 12 C-1.03 12 1.94 12 5 12 C5 12.33 5 12.66 5 13 C1.37 13.33 -2.26 13.66 -6 14 C-6 11.36 -6 8.72 -6 6 C-3.23735711 5.40267181 -0.83967231 5 2 5 C1.01 4.34 0.02 3.68 -1 3 C-0.67 2.01 -0.34 1.02 0 0 Z " fill="#CBC5BC" transform="translate(170,110)"/>
<path d="M0 0 C3.63 0 7.26 0 11 0 C11.33 1.65 11.66 3.3 12 5 C11 6 11 6 8.49609375 6.09765625 C6.98208984 6.08025391 6.98208984 6.08025391 5.4375 6.0625 C4.42558594 6.05347656 3.41367188 6.04445313 2.37109375 6.03515625 C1.58863281 6.02355469 0.80617188 6.01195313 0 6 C0 4.02 0 2.04 0 0 Z " fill="#D5D5D5" transform="translate(115,115)"/>
<path d="M0 0 C0.8146875 0.00257812 1.629375 0.00515625 2.46875 0.0078125 C3.2834375 0.00523438 4.098125 0.00265625 4.9375 0 C6.96875 0.1328125 6.96875 0.1328125 7.96875 1.1328125 C8.04054964 2.65209288 8.05267007 4.17448732 8.03125 5.6953125 C8.02222656 6.52160156 8.01320312 7.34789062 8.00390625 8.19921875 C7.99230469 8.83730469 7.98070312 9.47539062 7.96875 10.1328125 C2.46875 8.66614583 2.46875 8.66614583 0.09375 6.1328125 C-1.03125 4.1328125 -1.03125 4.1328125 -1.03125 2.1328125 C-1.69125 1.8028125 -2.35125 1.4728125 -3.03125 1.1328125 C-2.03125 0.1328125 -2.03125 0.1328125 0 0 Z " fill="#DFDFDF" transform="translate(167.03125,122.8671875)"/>
<path d="M0 0 C6.70518586 -0.19818283 12.65176798 -0.30844801 19 2 C19.33 1.34 19.66 0.68 20 0 C20 3.63 20 7.26 20 11 C19.67 11 19.34 11 19 11 C18.938125 10.21625 18.87625 9.4325 18.8125 8.625 C18.28626404 5.83146376 18.28626404 5.83146376 15.875 4.875 C12.59629895 3.87713446 9.60612523 3.58218941 6.1875 3.375 C5.02605469 3.30023438 3.86460937 3.22546875 2.66796875 3.1484375 C1.78753906 3.09945312 0.90710938 3.05046875 0 3 C0 2.01 0 1.02 0 0 Z " fill="#E7E7E7" transform="translate(236,115)"/>
<path d="M0 0 C0.69738281 0.05671875 1.39476562 0.1134375 2.11328125 0.171875 C3.82639312 0.31267872 5.53834611 0.46745972 7.25 0.625 C7.58 1.945 7.91 3.265 8.25 4.625 C1.54481414 4.82318283 -4.40176798 4.93344801 -10.75 2.625 C-11.08 3.285 -11.41 3.945 -11.75 4.625 C-11.75 3.635 -11.75 2.645 -11.75 1.625 C-7.96332311 -0.93198285 -4.3377666 -0.40999684 0 0 Z " fill="#DDDDDD" transform="translate(240.75,121.375)"/>
<path d="M0 0 C0.763125 0.20625 1.52625 0.4125 2.3125 0.625 C2.9375 3 2.9375 3 3.3125 5.625 C1.3125 7.625 1.3125 7.625 -1.75 7.8125 C-4.6875 7.625 -4.6875 7.625 -5.6875 6.625 C-5.9375 4.1875 -5.9375 4.1875 -5.6875 1.625 C-2.6875 -0.375 -2.6875 -0.375 0 0 Z " fill="#2374C9" transform="translate(150.6875,116.375)"/>
<path d="M0 0 C3.91841827 1.30613942 6.32640809 2.83129848 9 6 C9 6.66 9 7.32 9 8 C6.36 8.66 3.72 9.32 1 10 C-0.80411967 7.24075815 -1.0127245 6.11027897 -0.625 2.75 C-0.41875 1.8425 -0.2125 0.935 0 0 Z " fill="#F6F5F5" transform="translate(184,108)"/>
<path d="M0 0 C2.6875 0.3125 2.6875 0.3125 5 1 C4.67 3.97 4.34 6.94 4 10 C1.03 9.67 -1.94 9.34 -5 9 C-4.34 7.68 -3.68 6.36 -3 5 C-0.69 5 1.62 5 4 5 C4 4.34 4 3.68 4 3 C1.69 3 -0.62 3 -3 3 C-1.8125 1.4375 -1.8125 1.4375 0 0 Z " fill="#D0B9AA" transform="translate(189,116)"/>
<path d="M0 0 C3.25696479 0.41755959 4.63443291 0.63443291 7 3 C7 3.99 7 4.98 7 6 C4.29120665 7.35439668 1.99066732 7.06501451 -1 7 C-1.04254356 5.00045254 -1.04080783 2.99958364 -1 1 C-0.67 0.67 -0.34 0.34 0 0 Z " fill="#B1A5C9" transform="translate(179,126)"/>
<path d="M0 0 C3.63 0 7.26 0 11 0 C11 1.32 11 2.64 11 4 C7.37 4 3.74 4 0 4 C0 2.68 0 1.36 0 0 Z " fill="#C6C6C6" transform="translate(7,122)"/>
<path d="M0 0 C3.3 0 6.6 0 10 0 C10 1.32 10 2.64 10 4 C6.7 4 3.4 4 0 4 C0 2.68 0 1.36 0 0 Z " fill="#C5C5C5" transform="translate(7,115)"/>
<path d="M0 0 C1.98 0 3.96 0 6 0 C6 0.66 6 1.32 6 2 C4.68 2.33 3.36 2.66 2 3 C1.67 4.32 1.34 5.64 1 7 C-2.3 7 -5.6 7 -9 7 C-9 6.34 -9 5.68 -9 5 C-6.69 5 -4.38 5 -2 5 C-2 4.34 -2 3.68 -2 3 C-1.34 3 -0.68 3 0 3 C0 2.01 0 1.02 0 0 Z " fill="#A4A3A2" transform="translate(175,115)"/>
<path d="M0 0 C0.99 0.33 1.98 0.66 3 1 C3.33 2.65 3.66 4.3 4 6 C2.02 6 0.04 6 -2 6 C-1.125 1.125 -1.125 1.125 0 0 Z " fill="#C4C4C4" transform="translate(39,118)"/>
<path d="M0 0 C-0.25 1.875 -0.25 1.875 -1 4 C-3.0625 5.25 -3.0625 5.25 -5 6 C-5.66 4.68 -6.32 3.36 -7 2 C-4.35261084 0.5393715 -3.10551666 0 0 0 Z " fill="#FCFCFC" transform="translate(175,124)"/>
<path d="M0 0 C0.33 0 0.66 0 1 0 C1 3.63 1 7.26 1 11 C0.67 11 0.34 11 0 11 C-0.0928125 9.824375 -0.0928125 9.824375 -0.1875 8.625 C-0.455625 7.75875 -0.72375 6.8925 -1 6 C-3.47636012 4.62533375 -3.47636012 4.62533375 -6 4 C-6 3.34 -6 2.68 -6 2 C-4.02 2 -2.04 2 0 2 C0 1.34 0 0.68 0 0 Z " fill="#D1D1D1" transform="translate(255,115)"/>
<path d="M0 0 C0.33 0.66 0.66 1.32 1 2 C1.66 2.33 2.32 2.66 3 3 C2.67 4.98 2.34 6.96 2 9 C0.68 8.67 -0.64 8.34 -2 8 C-2 7.01 -2 6.02 -2 5 C-1.34 5 -0.68 5 0 5 C0 3.35 0 1.7 0 0 Z " fill="#B3B2B3" transform="translate(176,124)"/>
<path d="M0 0 C5.75 0.75 5.75 0.75 8 3 C6.68 3.99 5.36 4.98 4 6 C2.62437146 4.71034824 1.29233607 3.37310707 0 2 C0 1.34 0 0.68 0 0 Z " fill="#ECF2CE" transform="translate(185,124)"/>
<path d="M0 0 C2.6875 0.3125 2.6875 0.3125 5 1 C5 2.98 5 4.96 5 7 C4.67 5.68 4.34 4.36 4 3 C1.69 3 -0.62 3 -3 3 C-1.8125 1.4375 -1.8125 1.4375 0 0 Z " fill="#C9C8C7" transform="translate(189,116)"/>
<path d="M0 0 C2.475 0.99 2.475 0.99 5 2 C3.35 3.98 1.7 5.96 0 8 C-1.43088528 5.13822943 -0.59991697 3.06624227 0 0 Z " fill="#EBEAE9" transform="translate(184,108)"/>
<path d="M0 0 C0.99 0 1.98 0 3 0 C2.67 2.97 2.34 5.94 2 9 C1.67 8.34 1.34 7.68 1 7 C0.01 6.67 -0.98 6.34 -2 6 C-1.34 6 -0.68 6 0 6 C0 4.02 0 2.04 0 0 Z " fill="#B2AFB5" transform="translate(180,108)"/>
<path d="M0 0 C2.4375 0.75 2.4375 0.75 5 2 C5.8125 4.125 5.8125 4.125 6 6 C5.01 6.33 4.02 6.66 3 7 C0 2.25 0 2.25 0 0 Z " fill="#A8D6A9" transform="translate(183,125)"/>
<path d="M0 0 C1.98 0.495 1.98 0.495 4 1 C3.67 2.32 3.34 3.64 3 5 C1.68 4.67 0.36 4.34 -1 4 C-0.67 2.68 -0.34 1.36 0 0 Z " fill="#F7F7F6" transform="translate(178,118)"/>
<path d="M0 0 C1.32 0 2.64 0 4 0 C4.66 1.98 5.32 3.96 6 6 C5.01 6 4.02 6 3 6 C3 5.34 3 4.68 3 4 C2.01 3.67 1.02 3.34 0 3 C0 2.01 0 1.02 0 0 Z " fill="#A7B2CE" transform="translate(172,109)"/>
<path d="M0 0 C0.99 0 1.98 0 3 0 C2.67 1.65 2.34 3.3 2 5 C0.35 5.33 -1.3 5.66 -3 6 C-2.67 5.34 -2.34 4.68 -2 4 C-1.34 4 -0.68 4 0 4 C0 2.68 0 1.36 0 0 Z " fill="#2586E8" transform="translate(151,118)"/>
<path d="M0 0 C0.33 0.66 0.66 1.32 1 2 C1.66 2.33 2.32 2.66 3 3 C5 4 5 4 6 6 C2.62537285 5.45276317 0.91765 4.9451 -2 3 C-1.34 2.01 -0.68 1.02 0 0 Z " fill="#F2F6DB" transform="translate(168,111)"/>
<path d="M0 0 C2 0 2 0 3.625 1.1875 C5.42149467 3.55560662 5.23521845 5.09897251 5 8 C3.02 6.35 1.04 4.7 -1 3 C-0.67 2.01 -0.34 1.02 0 0 Z " fill="#B4DDB2" transform="translate(170,110)"/>
<path d="M0 0 C2.31 0.33 4.62 0.66 7 1 C7 1.66 7 2.32 7 3 C4.69 3 2.38 3 0 3 C0 2.01 0 1.02 0 0 Z " fill="#CAA9A9" transform="translate(166,117)"/>
<path d="M0 0 C1.98 0.99 1.98 0.99 4 2 C4 2.99 4 3.98 4 5 C2.68 5 1.36 5 0 5 C0 3.35 0 1.7 0 0 Z " fill="#9DA9C8" transform="translate(182,127)"/>
</svg>
