<?xml version="1.0" encoding="UTF-8"?>
<svg version="1.1" xmlns="http://www.w3.org/2000/svg" width="1270" height="123">
<path d="M0 0 C419.1 0 838.2 0 1270 0 C1270 40.59 1270 81.18 1270 123 C850.9 123 431.8 123 0 123 C0 82.41 0 41.82 0 0 Z " fill="#FCFCFC" transform="translate(0,0)"/>
<path d="M0 0 C0 0.66 0 1.32 0 2 C0.73347656 2.27457031 1.46695313 2.54914062 2.22265625 2.83203125 C8.82978912 5.61055829 14.20620472 9.65118081 18.61328125 15.2890625 C20.0053243 17.08393298 20.0053243 17.08393298 21.88647461 18.78076172 C29.64335026 26.92561556 30.97287003 36.60318874 30.78222656 47.34521484 C30.75000534 49.49964296 30.78208091 51.64657798 30.8203125 53.80078125 C30.86097619 66.98820623 26.39908763 76.29208191 17.26171875 85.76171875 C16.51535156 86.50035156 15.76898437 87.23898438 15 88 C14.11248047 88.93779297 14.11248047 88.93779297 13.20703125 89.89453125 C-1.54138979 104.31738008 -24.78426233 108.92207067 -44.5625 109.25 C-66.5469544 108.86150133 -88.27582747 102.98026654 -104 87 C-104.85335937 86.13375 -105.70671875 85.2675 -106.5859375 84.375 C-113.40704087 77.14506078 -113.40704087 77.14506078 -114 72 C-114.66 72 -115.32 72 -116 72 C-118.89830234 64.06484215 -120.87158122 56.37405513 -122 48 C-122.556875 49.19625 -123.11375 50.3925 -123.6875 51.625 C-126.92167671 58.04796146 -130.84135491 62.27616809 -137 66 C-133.48992864 72.51098088 -129.68258212 78.77679796 -125.6875 85 C-124.60604799 86.68620302 -123.52650674 88.37363361 -122.44921875 90.0625 C-121.97830811 90.79597656 -121.50739746 91.52945313 -121.0222168 92.28515625 C-120 94 -120 94 -120 95 C-152.2401691 97.69950647 -152.2401691 97.69950647 -159.79980469 93.41210938 C-164.18902008 89.05447107 -166.2238325 83.81843372 -168 78 C-168.66 76.35 -169.32 74.7 -170 73 C-183.2 73 -196.4 73 -210 73 C-210 80.26 -210 87.52 -210 95 C-220.89 95 -231.78 95 -243 95 C-243 65.63 -243 36.26 -243 6 C-220.56134944 5.79945595 -220.56134944 5.79945595 -210.93164062 5.75585938 C-204.38333657 5.7260718 -197.83538501 5.69098964 -191.28735352 5.62280273 C-186.00291287 5.56812393 -180.71885069 5.53850426 -175.43414879 5.52561378 C-173.42687721 5.51643792 -171.41962428 5.49852095 -169.41251564 5.47134972 C-154.80322433 5.28160052 -142.6395171 6.18699664 -130.9375 16.0390625 C-124.42673949 22.62858221 -121.07579153 29.855772 -120 39 C-119.67386719 38.20335937 -119.34773437 37.40671875 -119.01171875 36.5859375 C-118.11069675 34.40115849 -117.20016346 32.22028315 -116.28125 30.04296875 C-115.39332823 27.93415454 -114.53036263 25.81472473 -113.6875 23.6875 C-111.57209014 20.31851393 -108.95482296 18.17330338 -105.90234375 15.65625 C-103.84911395 13.99176865 -103.84911395 13.99176865 -102.125 11.4375 C-98.80477479 7.62900638 -94.48328702 5.27288593 -90 3 C-89.34 3 -88.68 3 -88 3 C-87.979375 2.401875 -87.95875 1.80375 -87.9375 1.1875 C-87 -1 -87 -1 -84 -2.6875 C-79.77680316 -4.30302644 -75.48462907 -4.70509242 -71 -5 C-71 -5.66 -71 -6.32 -71 -7 C-46.92942188 -12.79349158 -22.24408156 -11.49277547 0 0 Z " fill="#222225" transform="translate(784,11)"/>
<path d="M0 0 C0.825 0.39445313 1.65 0.78890625 2.5 1.1953125 C16.30650482 8.58533271 26.6447583 21.53415962 32.1484375 36.0234375 C36.15987708 49.75065736 34.82523603 63.75250578 28.4375 76.4375 C18.5512381 93.48277914 3.11403988 105.43077388 -15.875 110.875 C-29.83079784 114.4200419 -46.04451104 114.35785757 -60 111 C-61.01964844 110.76667969 -62.03929687 110.53335938 -63.08984375 110.29296875 C-80.12682653 105.77042423 -94.85553275 94.96724573 -104 79.875 C-110.95543795 66.91413515 -114.41281582 53.70136045 -111 39 C-105.20635659 21.56869025 -92.9117965 7.83977584 -76.94287109 -1.03369141 C-71.25003973 -3.86508454 -65.13591956 -5.43979823 -59 -7 C-57.74703125 -7.36738281 -57.74703125 -7.36738281 -56.46875 -7.7421875 C-37.80645267 -12.53918646 -16.96930111 -8.33666246 0 0 Z " fill="#C8C6CB" transform="translate(927,9)"/>
<path d="M0 0 C13.86 0 27.72 0 42 0 C42 29.7 42 59.4 42 90 C31.11 90 20.22 90 9 90 C8.67 74.49 8.34 58.98 8 43 C1.57486134 53.82185899 1.57486134 53.82185899 -4.84169006 64.64886475 C-5.63388646 65.97932677 -6.433184 67.30557308 -7.23753357 68.62872314 C-9.3557087 72.12977069 -11.33761344 75.62151409 -13.10986328 79.3112793 C-17.91981987 88.9879999 -17.91981987 88.9879999 -23.33569336 91.62280273 C-27.28951599 92.49955934 -30.9747536 92.78392641 -35 92.6875 C-35.68775513 92.68883942 -36.37551025 92.69017883 -37.08410645 92.69155884 C-43.52660208 92.59281142 -48.86937126 91.82991793 -53.91992188 87.4921875 C-60.10303933 79.78863133 -63.85603432 70.93050832 -68 62 C-71.63 55.73 -75.26 49.46 -79 43 C-79.33 58.51 -79.66 74.02 -80 90 C-90.89 90 -101.78 90 -113 90 C-113 60.63 -113 31.26 -113 1 C-99.14 1 -85.28 1 -71 1 C-59.51450113 19.37679819 -59.51450113 19.37679819 -56.078125 25.2109375 C-55.68477966 25.87485504 -55.29143433 26.53877258 -54.88616943 27.22280884 C-53.67229578 29.27247079 -52.46102412 31.32365345 -51.25 33.375 C-50.02720258 35.44214462 -48.8038506 37.5089603 -47.58044434 39.57574463 C-46.79839176 40.89701793 -46.01656533 42.21842511 -45.23498535 43.53997803 C-42.17835784 48.70638828 -39.09860597 53.85864341 -36 59 C-28.33350128 47.01740046 -21.08785538 34.79058656 -13.8659668 22.53710938 C-13.46666962 21.86114212 -13.06737244 21.18517487 -12.65597534 20.48872375 C-11.91381459 19.23218274 -11.17310686 17.9747815 -10.43435669 16.7162323 C-7.0857254 11.05002245 -3.54109106 5.56457167 0 0 Z " fill="#020202" transform="translate(1081,16)"/>
<path d="M0 0 C22.80854291 -0.16043524 22.80854291 -0.16043524 32.5703125 -0.1953125 C39.21757869 -0.21917512 45.86462338 -0.2473307 52.51171875 -0.30175781 C57.87393743 -0.34538683 63.23591838 -0.36917319 68.59830093 -0.37950897 C70.63873153 -0.38686978 72.67914988 -0.40124345 74.71947861 -0.42292023 C87.83051162 -0.55660776 98.61507981 -0.3868722 109.23828125 8.25390625 C114.15679995 13.12880173 116.29087277 18.08884198 116.625 25 C116.42297615 30.27282243 115.01153406 33.80779503 112.09375 38.16015625 C110.74449875 40.0730562 110.74449875 40.0730562 111 43 C112.45786517 44.19279878 113.91888544 45.38215385 115.40234375 46.54296875 C119.6479411 50.41487049 121.59618704 55.65988999 122.2734375 61.26171875 C122.60084791 69.0817905 120.39192653 74.11693479 115.2734375 79.9765625 C104.0702689 90.8109025 89.99201858 89.5370239 75.48828125 89.390625 C73.30682395 89.383154 71.12535988 89.37746513 68.94389343 89.37347412 C63.23427425 89.35828553 57.52506952 89.31906253 51.81561279 89.2746582 C44.94808769 89.2263181 38.08042313 89.20813923 31.21277618 89.18484497 C20.80823023 89.14620722 10.40459158 89.06950553 0 89 C0 59.63 0 30.26 0 0 Z " fill="#010101" transform="translate(4,17)"/>
<path d="M0 0 C22.43865056 -0.20054405 22.43865056 -0.20054405 32.06835938 -0.24414062 C38.61666343 -0.2739282 45.16461499 -0.30901036 51.71264648 -0.37719727 C56.99708713 -0.43187607 62.28114931 -0.46149574 67.56585121 -0.47438622 C69.57312279 -0.48356208 71.58037572 -0.50147905 73.58748436 -0.52865028 C88.19677567 -0.71839948 100.3604829 0.18699664 112.0625 10.0390625 C117.97403783 16.02211087 122.25996923 23.08971722 122.375 31.625 C122.20187939 40.4216911 119.68152351 48.10200567 113.59375 54.5625 C111.21753078 56.70575655 108.74894477 58.36372335 106 60 C109.51007136 66.51098088 113.31741788 72.77679796 117.3125 79 C118.39395201 80.68620302 119.47349326 82.37363361 120.55078125 84.0625 C121.02169189 84.79597656 121.49260254 85.52945313 121.9777832 86.28515625 C123 88 123 88 123 89 C90.7598309 91.69950647 90.7598309 91.69950647 83.20019531 87.41210938 C78.81097992 83.05447107 76.7761675 77.81843372 75 72 C74.34 70.35 73.68 68.7 73 67 C59.8 67 46.6 67 33 67 C33 74.26 33 81.52 33 89 C22.11 89 11.22 89 0 89 C0 59.63 0 30.26 0 0 Z " fill="#020202" transform="translate(541,17)"/>
<path d="M0 0 C2.90442455 0.01079438 5.80823963 -0.00000272 8.71264648 -0.01269531 C25.25228255 -0.02522307 45.01189149 0.37570567 58.32788086 11.57324219 C64.01303145 18.36383872 65.57788086 23.39450266 65.57788086 32.26074219 C54.68788086 32.26074219 43.79788086 32.26074219 32.57788086 32.26074219 C31.58788086 29.78574219 31.58788086 29.78574219 30.57788086 27.26074219 C24.16309536 23.08367256 16.99611506 23.10458324 9.55444336 23.09277344 C8.80883148 23.08944504 8.0632196 23.08611664 7.29501343 23.08268738 C5.72687389 23.07765439 4.15872378 23.07527792 2.59057617 23.07543945 C0.21636985 23.0732546 -2.15736984 23.05506483 -4.53149414 23.03613281 C-16.80562347 22.78011537 -16.80562347 22.78011537 -28.42211914 26.26074219 C-28.58899362 28.6772 -28.58899362 28.6772 -28.42211914 31.26074219 C-22.65800995 37.02485138 -10.91678177 35.62075003 -3.35961914 35.76074219 C-0.68230187 35.83187507 1.99463616 35.90589437 4.67163086 35.98730469 C5.3395314 36.00753693 6.00743195 36.02776917 6.6955719 36.0486145 C49.94374477 37.44459879 49.94374477 37.44459879 61.23413086 47.77636719 C66.86097741 54.25378357 67.09149739 60.11441526 66.89428711 68.32714844 C66.38159148 74.70103119 64.31577897 78.06281222 60.45288086 82.94824219 C48.0232456 92.94599229 31.66132054 94.41211531 16.26538086 94.42871094 C15.1788623 94.43203934 14.09234375 94.43536774 12.97290039 94.438797 C10.67668071 94.44384682 8.38045374 94.44620592 6.08422852 94.44604492 C2.61714139 94.44821758 -0.84962004 94.46635616 -4.31665039 94.48535156 C-45.11143808 94.59203124 -45.11143808 94.59203124 -57.83618164 82.13574219 C-63.15261302 75.85030607 -63.56975669 70.7843667 -64.42211914 62.26074219 C-53.53211914 62.26074219 -42.64211914 62.26074219 -31.42211914 62.26074219 C-30.43211914 64.24074219 -29.44211914 66.22074219 -28.42211914 68.26074219 C-21.20271196 73.32436812 -8.99154318 71.67320644 -0.59008789 71.59692383 C2.20317303 71.57323971 4.99548174 71.57638969 7.78881836 71.58300781 C9.58569898 71.57743229 11.38257564 71.5703232 13.17944336 71.56152344 C14.41568954 71.56289055 14.41568954 71.56289055 15.6769104 71.56428528 C21.55512841 71.49317689 27.23405071 70.93265726 32.57788086 68.26074219 C32.57788086 65.95074219 32.57788086 63.64074219 32.57788086 61.26074219 C26.05176923 57.68691915 20.44159195 57.15013122 13.07397461 57.01464844 C11.60611198 56.98335591 10.13825739 56.95168457 8.67041016 56.91967773 C7.90981293 56.90431976 7.1492157 56.88896179 6.36557007 56.87313843 C-46.1518149 55.75815584 -46.1518149 55.75815584 -57.42211914 44.26074219 C-62.81464258 37.72962142 -62.95293891 31.43120334 -62.42211914 23.26074219 C-61.40190053 16.70219398 -57.76487061 13.09208685 -52.75805664 8.95214844 C-38.39844506 -1.44536296 -16.9294729 -0.07480097 0 0 Z " fill="#020202" transform="translate(1199.422119140625,13.7392578125)"/>
<path d="M0 0 C22.97535184 -0.47586744 48.61711596 -0.27942634 66.57128906 16.10107422 C69.56464126 19.38199737 71.49458814 23.05855174 73.36035156 27.06201172 C73.79347656 27.96951172 74.22660156 28.87701172 74.67285156 29.81201172 C75.36035156 32.06201172 75.36035156 32.06201172 75.36035156 37.06201172 C63.48035156 37.06201172 51.60035156 37.06201172 39.36035156 37.06201172 C38.04035156 34.75201172 36.72035156 32.44201172 35.36035156 30.06201172 C27.60597063 22.7157561 14.66507785 22.61541283 4.49267578 22.70654297 C-3.94488023 22.96931091 -12.05323983 24.43946779 -18.63964844 30.06201172 C-24.38975992 37.67702423 -24.27712012 44.88796276 -23.63964844 54.06201172 C-22.52367957 59.58499142 -20.75050826 63.74171911 -16.07714844 67.06201172 C-4.82947886 72.84944897 12.20462353 73.1312683 24.39550781 70.25732422 C27.86672758 69.10157941 30.40434069 68.22860895 33.36035156 66.06201172 C34.09380749 64.51010935 34.82683468 62.95800431 35.55957031 61.40576172 C37.06860352 58.99780273 37.06860352 58.99780273 39.36035156 57.06201172 C45.50589184 55.89512711 51.51256213 56.21437526 57.73535156 56.49951172 C59.44227781 56.54468649 61.14931825 56.58574591 62.85644531 56.62255859 C67.02724219 56.72144962 71.19254354 56.87654331 75.36035156 57.06201172 C74.50848675 67.49344477 71.3865108 75.04749107 63.59472656 82.31201172 C49.08368998 93.67729911 30.36796458 94.40547841 12.76196289 94.32275391 C10.06340856 94.31207329 7.36552585 94.32267974 4.66699219 94.33544922 C-15.27651487 94.35236745 -34.72851677 92.87472486 -50.38964844 78.99951172 C-60.2332216 68.52613649 -61.052604 54.99777734 -60.85058594 41.44873047 C-60.51164035 31.57955544 -56.66879373 22.70877135 -50.08105469 15.31201172 C-36.24863724 2.57424602 -17.961674 0.42196311 0 0 Z " fill="#020202" transform="translate(326.6396484375,13.93798828125)"/>
<path d="M0 0 C1.44142936 -0.1056985 2.88536854 -0.18015273 4.32983398 -0.22924805 C5.09825623 -0.26709915 5.86667847 -0.30495026 6.65838623 -0.34394836 C12.43808191 -0.5662809 18.21924059 -0.55263662 23.99780273 -0.31518555 C24.75513199 -0.30143387 25.51246124 -0.28768219 26.29273987 -0.27351379 C30.56941327 -0.00141905 32.96548866 0.79591828 36.09008789 3.80297852 C38.24690779 6.27463811 39.69595926 8.44688509 40.61499023 11.63012695 C42.78902594 18.00406097 46.26080422 23.49820845 49.70092773 29.2590332 C50.99738338 31.51093558 52.29031822 33.76486838 53.57983398 36.02075195 C57.35885606 42.58273846 61.23072254 49.08553263 65.13842773 55.5715332 C65.75105469 56.58852295 66.36368164 57.6055127 66.99487305 58.65332031 C67.60298828 59.66273682 68.21110352 60.67215332 68.83764648 61.7121582 C72.56597523 67.90116402 76.26672897 74.10616665 79.95092773 80.3215332 C80.51312012 81.26609375 81.0753125 82.2106543 81.65454102 83.18383789 C82.16355957 84.04396484 82.67257812 84.9040918 83.19702148 85.7902832 C83.87075806 86.92626953 83.87075806 86.92626953 84.55810547 88.08520508 C85.51342773 89.8215332 85.51342773 89.8215332 85.51342773 90.8215332 C80.47826064 91.01972311 75.44537367 91.16464543 70.40722656 91.26098633 C68.6949102 91.30115037 66.9828671 91.35569718 65.27148438 91.42504883 C51.02319777 91.98786236 51.02319777 91.98786236 47.25317383 89.07543945 C45.48834028 86.32142759 44.51342773 84.10659833 44.51342773 80.8215332 C25.04342773 80.8215332 5.57342773 80.8215332 -14.48657227 80.8215332 C-15.14657227 82.4715332 -15.80657227 84.1215332 -16.48657227 85.8215332 C-17.60107422 88.60351562 -17.60107422 88.60351562 -19.48657227 90.8215332 C-22.40777164 91.27641155 -24.74170894 91.40718815 -27.65454102 91.30981445 C-28.44935379 91.30273972 -29.24416656 91.29566498 -30.06306458 91.28837585 C-32.60102587 91.26039195 -35.13677834 91.19765161 -37.67407227 91.1340332 C-39.39474352 91.10895525 -41.11544937 91.08614119 -42.83618164 91.06567383 C-47.05382924 91.01055288 -51.26982634 90.92425732 -55.48657227 90.8215332 C-54.05630544 86.96637606 -52.26119716 83.54678428 -50.17016602 80.0090332 C-49.84196365 79.45139786 -49.51376129 78.89376251 -49.1756134 78.31922913 C-48.09497048 76.48475272 -47.00951156 74.65317499 -45.92407227 72.8215332 C-45.16101277 71.5280468 -44.39832368 70.23434183 -43.63598633 68.94042969 C-42.04901027 66.24746027 -40.46043612 63.55544294 -38.87084961 60.86401367 C-35.49961335 55.15248297 -32.15154537 49.4274052 -28.80160522 43.70336914 C-21.39779405 31.05585468 -13.97426939 18.4196053 -6.48657227 5.8215332 C-6.10041748 4.92990479 -5.7142627 4.03827637 -5.31640625 3.11962891 C-3.48657227 0.8215332 -3.48657227 0.8215332 0 0 Z " fill="#010101" transform="translate(183.486572265625,15.178466796875)"/>
<path d="M0 0 C1.95491166 0.06034579 3.91000521 0.11507154 5.86523438 0.1640625 C10.60224293 0.29478527 15.33030155 0.5008865 20.0625 0.75 C17.39528434 3.45721964 14.76563211 6.11520574 11.78515625 8.4765625 C11.19661865 8.94521729 10.60808105 9.41387207 10.00170898 9.89672852 C9.38239502 10.38455811 8.76308105 10.8723877 8.125 11.375 C7.14092163 12.15605103 7.14092163 12.15605103 6.13696289 12.95288086 C4.11508504 14.55568651 2.08942599 16.15358475 0.0625 17.75 C-0.54368164 18.22808105 -1.14986328 18.70616211 -1.77441406 19.19873047 C-5.2256252 21.91940024 -8.68252766 24.63273407 -12.14208984 27.34277344 C-15.36801396 29.87122416 -18.58997273 32.40472248 -21.8125 34.9375 C-22.99737964 35.86851019 -24.1822739 36.79950178 -25.3671875 37.73046875 C-26.21539062 38.39691406 -27.06359375 39.06335937 -27.9375 39.75 C-21.9609148 46.98481366 -15.48727763 53.72974551 -8.3515625 59.83203125 C-2.6884653 64.74945846 2.53481266 70.11545531 7.8125 75.4375 C8.85002341 76.48005363 9.88778243 77.52237283 10.92578125 78.56445312 C12.82665571 80.47341763 14.72588334 82.38396585 16.62402344 84.2956543 C18.76588267 86.45145234 20.9122556 88.60257006 23.0625 90.75 C17.22773885 90.94866919 11.39497037 91.09334919 5.55761719 91.18945312 C3.57484624 91.22953522 1.59230955 91.28401925 -0.38964844 91.35351562 C-16.82464493 91.9151135 -16.82464493 91.9151135 -21.78515625 89.1796875 C-23.77981753 87.15770209 -25.3209876 85.07969488 -26.9375 82.75 C-28.22583814 81.55408187 -29.55002078 80.39568075 -30.90625 79.27734375 C-35.29665436 75.49588246 -39.3665625 71.43243953 -43.4375 67.3125 C-44.16453125 66.58095703 -44.8915625 65.84941406 -45.640625 65.09570312 C-47.40859499 63.31610176 -49.17416378 61.53419082 -50.9375 59.75 C-55.25321245 61.14625991 -59.35755741 62.90491316 -61.9375 66.75 C-62.81839856 70.85758618 -62.82088534 74.87346129 -62.8125 79.0625 C-62.85375 82.919375 -62.895 86.77625 -62.9375 90.75 C-73.8275 90.75 -84.7175 90.75 -95.9375 90.75 C-95.9375 61.38 -95.9375 32.01 -95.9375 1.75 C-85.3775 1.75 -74.8175 1.75 -63.9375 1.75 C-63.9375 12.31 -63.9375 22.87 -63.9375 33.75 C-54.8791254 26.80906431 -54.8791254 26.80906431 -45.87721252 19.79521179 C-44.72318981 18.89206232 -43.56485277 17.99437849 -42.40086365 17.10411072 C-39.34111124 14.74211437 -36.46373176 12.33908464 -33.73168945 9.60205078 C-23.2198167 -0.52391148 -14.08727452 -0.7643978 0 0 Z " fill="#020202" transform="translate(509.9375,15.25)"/>
<path d="M0 0 C0 0.66 0 1.32 0 2 C0.99 1.34 1.98 0.68 3 0 C3.99 0 4.98 0 6 0 C6.165 0.61875 6.33 1.2375 6.5 1.875 C8.90181375 5.27756949 12.00162134 5.22612026 16 6 C16 6.66 16 7.32 16 8 C17.7325 8.1546875 17.7325 8.1546875 19.5 8.3125 C24.01171519 8.86035113 27.80605749 10.2774879 32 12 C32.33 11.01 32.66 10.02 33 9 C37.92503607 8.64821171 40.68796574 9.69904054 45 12 C44.79883546 14.60913409 44.56552831 17.20832369 44.3125 19.8125 C44.25900391 20.55048828 44.20550781 21.28847656 44.15039062 22.04882812 C43.92578125 24.20703125 43.92578125 24.20703125 43 28 C40.59375 29.9375 40.59375 29.9375 38 31 C37.071875 31.391875 36.14375 31.78375 35.1875 32.1875 C34.465625 32.455625 33.74375 32.72375 33 33 C33 32.34 33 31.68 33 31 C30.69 31 28.38 31 26 31 C26 31.66 26 32.32 26 33 C25.34 33 24.68 33 24 33 C24 33.66 24 34.32 24 35 C24.763125 34.67 25.52625 34.34 26.3125 34 C29 33 29 33 32 33 C32 33.66 32 34.32 32 35 C32.53625 35.226875 33.0725 35.45375 33.625 35.6875 C36.78500863 37.43382056 39.2676983 39.6402849 42 42 C42.61875 41.22462891 42.61875 41.22462891 43.25 40.43359375 C45.06168843 38.36713664 46.77857384 36.62253307 49 35 C52.6875 35.0625 52.6875 35.0625 54.69921875 35.51171875 C61.00889033 36.85078318 67.77525917 37.19504842 73.5 33.9375 C77.12386202 31.25539007 79.53371068 28.28403808 81 24 C81.14108946 22.62829688 81.24506207 21.25229003 81.3125 19.875 C82.04513833 15.74558397 82.22528694 15.32776288 85.375 13 C87.95729085 11.3297523 88.82103992 11 92 11 C95.76275654 15.34164217 95.6911976 20.51609533 96 26 C94.515 26.495 94.515 26.495 93 27 C92.9175 27.70125 92.835 28.4025 92.75 29.125 C92 32 92 32 89.875 35.125 C89.25625 36.07375 88.6375 37.0225 88 38 C88.33 38.99 88.66 39.98 89 41 C89.66 41.33 90.32 41.66 91 42 C91 42.66 91 43.32 91 44 C91.556875 44.103125 92.11375 44.20625 92.6875 44.3125 C96.92199618 45.57140427 100.65224742 48.14821077 104 51 C104 51.66 104 52.32 104 53 C104.5775 53.103125 105.155 53.20625 105.75 53.3125 C108.348115 54.10636847 109.89545449 55.30278588 112 57 C113.485 57.99 113.485 57.99 115 59 C104.23834713 70.83781816 88.43212161 78.09325591 72.50537109 79.25488281 C68.87384686 79.32894517 65.25666282 79.31201345 61.625 79.25 C60.39394531 79.24484375 59.16289063 79.2396875 57.89453125 79.234375 C48.87027057 79.15615822 48.87027057 79.15615822 44.79443359 78.42480469 C41.92585499 77.77181778 41.92585499 77.77181778 39 79 C23.78523718 76.51031154 10.83062246 66.41311291 1 55 C-2.88075061 49.32538493 -6.11731277 43.64092161 -8 37 C-7.5625 34.9375 -7.5625 34.9375 -7 33 C-7.14824219 32.28328125 -7.29648437 31.5665625 -7.44921875 30.828125 C-9.19464912 21.8657733 -9.05334344 11.34021285 -5 3 C-2.48451327 0 -2.48451327 0 0 0 Z " fill="#C4C4C8" transform="translate(826,40)"/>
<path d="M0 0 C0.825 0.39445313 1.65 0.78890625 2.5 1.1953125 C16.30650482 8.58533271 26.6447583 21.53415962 32.1484375 36.0234375 C36.15987708 49.75065736 34.82523603 63.75250578 28.4375 76.4375 C18.5512381 93.48277914 3.11403988 105.43077388 -15.875 110.875 C-23.26752739 112.75284458 -30.66010865 113.19368258 -38.25 113.1875 C-39.07540283 113.18814453 -39.90080566 113.18878906 -40.7512207 113.18945312 C-47.30806058 113.13316575 -53.59106219 112.4327366 -60 111 C-59.505 109.515 -59.505 109.515 -59 108 C-58.13753662 108.16008545 -57.27507324 108.3201709 -56.38647461 108.48510742 C-35.00370517 111.73622564 -14.61890289 108.96927612 4 98 C4.91523437 97.2678125 5.83046875 96.535625 6.7734375 95.78125 C9 94 9 94 11 94 C11.99 92.02 11.99 92.02 13 90 C9.10580643 87.29431287 9.10580643 87.29431287 4.9375 85.0625 C3 84 3 84 0.75 81.625 C-2.53035519 78.49375186 -5.89279587 76.82429166 -10 75 C-10 74.34 -10 73.68 -10 73 C-11.98 72.01 -11.98 72.01 -14 71 C-12.31326082 66.50202887 -10.18326108 62.27113698 -8 58 C-7.34 58.66 -6.68 59.32 -6 60 C-3.88044319 60.79494805 -3.88044319 60.79494805 -1.4375 61.4375 C-0.54160156 61.70046875 0.35429688 61.9634375 1.27734375 62.234375 C2.97020661 62.71041678 4.67012012 63.1628535 6.37890625 63.578125 C12.95340153 65.36181415 16.54936433 68.97302302 21 74 C21.66 74.66 22.32 75.32 23 76 C30.09336009 67.11805627 31.03020552 56.9355125 30.22753906 45.96826172 C29.24060015 37.43102834 24.70903026 30.00667304 20 23 C19.48695313 22.2265625 18.97390625 21.453125 18.4453125 20.65625 C13.93193144 14.35047359 8.42466203 10.25202596 2 6 C0.96166016 5.27296875 0.96166016 5.27296875 -0.09765625 4.53125 C-10.93717305 -2.76928698 -23.68787798 -5.39104544 -36.5625 -5.3125 C-37.52269043 -5.30758545 -38.48288086 -5.3026709 -39.47216797 -5.29760742 C-54.7480224 -5.04941615 -71.95375324 -2.23105889 -84 8 C-85.33333333 11 -85.33333333 11 -84 14 C-83.01 14.33 -82.02 14.66 -81 15 C-81 16.32 -81 17.64 -81 19 C-79.35 19.33 -77.7 19.66 -76 20 C-76 20.66 -76 21.32 -76 22 C-74.02 22.66 -72.04 23.32 -70 24 C-70 24.66 -70 25.32 -70 26 C-69.34 26 -68.68 26 -68 26 C-66.64567325 27.31200404 -65.31266518 28.64631404 -64 30 C-63.01 30.495 -63.01 30.495 -62 31 C-62.33 32.32 -62.66 33.64 -63 35 C-61.92892883 35.86949317 -60.84254056 36.72014205 -59.75 37.5625 C-58.84507812 38.27599609 -58.84507812 38.27599609 -57.921875 39.00390625 C-56.08329222 40.17409025 -56.08329222 40.17409025 -54.140625 39.83984375 C-51.84056363 38.99710302 -51.84056363 38.99710302 -49.24609375 37.42578125 C-45.34308133 35.71146171 -42.19985749 35.8978509 -38.0625 36.1875 C-31.3972404 36.44132769 -31.3972404 36.44132769 -25.6875 33.3125 C-23.39727778 30.78845928 -21.52692057 28.05384115 -20 25 C-19.67 25.99 -19.34 26.98 -19 28 C-17.54282111 30.06779753 -17.54282111 30.06779753 -15.75 32.125 C-14.87601563 33.18074219 -14.87601563 33.18074219 -13.984375 34.2578125 C-11.66098773 36.29763675 -10.03321702 36.65484082 -7 37 C-9.45541226 39.97234116 -11.29798965 40.29485517 -15 41 C-17.74141047 42.03226086 -17.74141047 42.03226086 -20 44 C-20.4556953 46.99894532 -20.4556953 46.99894532 -20.0625 50.3125 C-19.92009904 54.45131489 -19.85022949 56.65053548 -21.5 60.5 C-26.64076954 65.64076954 -30.53373548 68.29958319 -38 68.375 C-41.58988853 68.2529257 -44.87689559 67.83315519 -48.375 67.0625 C-51.9249231 66.61016262 -51.9249231 66.61016262 -53.8203125 68.4921875 C-55.34996912 70.2637433 -56.71374668 72.04625915 -58 74 C-60.71496589 72.49168562 -62.88999601 71.11333744 -65.0625 68.875 C-67.10057007 66.90267413 -68.23837416 66.39451798 -71 66 C-71 65.34 -71 64.68 -71 64 C-71.66 64.66 -72.32 65.32 -73 66 C-74.32 66 -75.64 66 -77 66 C-77 65.34 -77 64.68 -77 64 C-76.34 64 -75.68 64 -75 64 C-75 63.34 -75 62.68 -75 62 C-72.6875 61.375 -72.6875 61.375 -70 61 C-69.01 61.66 -68.02 62.32 -67 63 C-66.2575 62.525625 -65.515 62.05125 -64.75 61.5625 C-62.35821432 60.20353086 -60.63326146 59.57954259 -58 59 C-58.02320313 58.18015625 -58.04640625 57.3603125 -58.0703125 56.515625 C-58.08835937 55.43796875 -58.10640625 54.3603125 -58.125 53.25 C-58.14820313 52.18265625 -58.17140625 51.1153125 -58.1953125 50.015625 C-58.00487687 47.07529894 -57.52670104 45.47638122 -56 43 C-56.61875 42.855625 -57.2375 42.71125 -57.875 42.5625 C-60 42 -60 42 -62 41 C-63.99960012 40.960008 -66.00047242 40.95653201 -68 41 C-68.495 41.99 -68.495 41.99 -69 43 C-74.28 41.68 -79.56 40.36 -85 39 C-85 38.34 -85 37.68 -85 37 C-87.64 36.67 -90.28 36.34 -93 36 C-93.66 34.35 -94.32 32.7 -95 31 C-96.98 31.66 -98.96 32.32 -101 33 C-101 32.34 -101 31.68 -101 31 C-101.66 31 -102.32 31 -103 31 C-103.33 31.99 -103.66 32.98 -104 34 C-104.66 34 -105.32 34 -106 34 C-108.84265445 44.78685842 -108.79184782 56.0249321 -107 67 C-107.99 67.495 -107.99 67.495 -109 68 C-113.64141664 59.95487782 -113.04306706 47.80090424 -111 39 C-105.20635659 21.56869025 -92.9117965 7.83977584 -76.94287109 -1.03369141 C-71.25003973 -3.86508454 -65.13591956 -5.43979823 -59 -7 C-57.74703125 -7.36738281 -57.74703125 -7.36738281 -56.46875 -7.7421875 C-37.80645267 -12.53918646 -16.96930111 -8.33666246 0 0 Z " fill="#E4DED9" transform="translate(927,9)"/>
<path d="M0 0 C0.99 0.33 1.98 0.66 3 1 C3.33 1.99 3.66 2.98 4 4 C4.99 4.33 5.98 4.66 7 5 C7 6.32 7 7.64 7 9 C9.475 9.495 9.475 9.495 12 10 C12 10.66 12 11.32 12 12 C13.98 12.66 15.96 13.32 18 14 C18 14.66 18 15.32 18 16 C18.66 16 19.32 16 20 16 C21.35432675 17.31200404 22.68733482 18.64631404 24 20 C24.66 20.33 25.32 20.66 26 21 C25.67 22.32 25.34 23.64 25 25 C26.07107117 25.86949317 27.15745944 26.72014205 28.25 27.5625 C29.15492188 28.27599609 29.15492188 28.27599609 30.078125 29.00390625 C31.91670778 30.17409025 31.91670778 30.17409025 33.859375 29.83984375 C36.15943637 28.99710302 36.15943637 28.99710302 38.75390625 27.42578125 C42.65691867 25.71146171 45.80014251 25.8978509 49.9375 26.1875 C56.6027596 26.44132769 56.6027596 26.44132769 62.3125 23.3125 C64.60272222 20.78845928 66.47307943 18.05384115 68 15 C68.495 16.485 68.495 16.485 69 18 C70.45717889 20.06779753 70.45717889 20.06779753 72.25 22.125 C72.83265625 22.82882813 73.4153125 23.53265625 74.015625 24.2578125 C76.33901227 26.29763675 77.96678298 26.65484082 81 27 C78.54458774 29.97234116 76.70201035 30.29485517 73 31 C70.25858953 32.03226086 70.25858953 32.03226086 68 34 C67.5443047 36.99894532 67.5443047 36.99894532 67.9375 40.3125 C68.07990096 44.45131489 68.14977051 46.65053548 66.5 50.5 C61.35923046 55.64076954 57.46626452 58.29958319 50 58.375 C46.41011147 58.2529257 43.12310441 57.83315519 39.625 57.0625 C36.0750769 56.61016262 36.0750769 56.61016262 34.1796875 58.4921875 C32.65003088 60.2637433 31.28625332 62.04625915 30 64 C27.28503411 62.49168562 25.11000399 61.11333744 22.9375 58.875 C20.89942993 56.90267413 19.76162584 56.39451798 17 56 C17 55.34 17 54.68 17 54 C16.34 54.66 15.68 55.32 15 56 C13.68 56 12.36 56 11 56 C11 55.34 11 54.68 11 54 C11.66 54 12.32 54 13 54 C13 53.34 13 52.68 13 52 C15.3125 51.375 15.3125 51.375 18 51 C18.99 51.66 19.98 52.32 21 53 C21.7425 52.525625 22.485 52.05125 23.25 51.5625 C25.64178568 50.20353086 27.36673854 49.57954259 30 49 C29.97679687 48.18015625 29.95359375 47.3603125 29.9296875 46.515625 C29.91164063 45.43796875 29.89359375 44.3603125 29.875 43.25 C29.85179687 42.18265625 29.82859375 41.1153125 29.8046875 40.015625 C29.99512313 37.07529894 30.47329896 35.47638122 32 33 C31.38125 32.855625 30.7625 32.71125 30.125 32.5625 C28 32 28 32 26 31 C24.00039988 30.960008 21.99952758 30.95653201 20 31 C19.67 31.66 19.34 32.32 19 33 C13.72 31.68 8.44 30.36 3 29 C3 28.34 3 27.68 3 27 C0.36 26.67 -2.28 26.34 -5 26 C-5.66 24.35 -6.32 22.7 -7 21 C-8.98 21.66 -10.96 22.32 -13 23 C-13 22.34 -13 21.68 -13 21 C-13.66 21 -14.32 21 -15 21 C-15.33 21.99 -15.66 22.98 -16 24 C-16.33 23.34 -16.66 22.68 -17 22 C-16.22265625 20.2734375 -16.22265625 20.2734375 -15.0625 18.375 C-14.0415625 16.704375 -14.0415625 16.704375 -13 15 C-12.67 15.66 -12.34 16.32 -12 17 C-10.11235097 17.68472665 -10.11235097 17.68472665 -7.9375 18.125 C-7.20402344 18.29257812 -6.47054687 18.46015625 -5.71484375 18.6328125 C-5.14894531 18.75398438 -4.58304688 18.87515625 -4 19 C-4 19.99 -4 20.98 -4 22 C-2.85660156 22.12117188 -1.71320312 22.24234375 -0.53515625 22.3671875 C0.95578417 22.53597321 2.44666673 22.70527047 3.9375 22.875 C5.06961914 22.99294922 5.06961914 22.99294922 6.22460938 23.11328125 C8.15919299 23.33883808 10.08176019 23.66258974 12 24 C12.33 24.66 12.66 25.32 13 26 C14.88764903 26.68472665 14.88764903 26.68472665 17.0625 27.125 C17.79597656 27.29257812 18.52945313 27.46015625 19.28515625 27.6328125 C19.85105469 27.75398438 20.41695312 27.87515625 21 28 C21.66 26.68 22.32 25.36 23 24 C22.195625 23.731875 21.39125 23.46375 20.5625 23.1875 C19.716875 22.795625 18.87125 22.40375 18 22 C17.505 20.515 17.505 20.515 17 19 C15.68352881 18.30062468 14.34977849 17.63270867 13 17 C12.67 16.34 12.34 15.68 12 15 C10.30841604 14.27029712 8.6145642 13.54509559 6.90625 12.85546875 C4.04703689 11.57233828 1.57472578 9.77369998 -1 8 C-2.3191582 7.30570621 -3.64649406 6.62469505 -5 6 C-3.35 4.02 -1.7 2.04 0 0 Z " fill="#D3D1D0" transform="translate(839,19)"/>
<path d="M0 0 C3.63165162 3.52483834 5.3027039 6.30536952 5.625 11.375 C5.38082323 16.61607992 3.93503009 20.39594385 0.125 24.0625 C-7.99533796 29.05590185 -16.07053439 30.37187666 -25.3515625 28.5859375 C-31.78569836 26.79987303 -35.31156993 23.55808646 -39.25 18.1875 C-40.74826097 13.09341272 -40.35100292 9.2628552 -38.4375 4.4375 C-35.41563895 -0.28483483 -30.2149848 -3.837505 -24.91796875 -5.58203125 C-15.26938478 -7.26084796 -8.01542069 -5.40169656 0 0 Z " fill="#2588ED" transform="translate(756.875,48.9375)"/>
<path d="M0 0 C6.72676094 -0.09193751 13.45133351 -0.17154658 20.17822266 -0.21972656 C22.46540726 -0.23981517 24.75254068 -0.26709128 27.03955078 -0.30175781 C30.33118334 -0.35039558 33.62213557 -0.37299679 36.9140625 -0.390625 C37.93303619 -0.41127014 38.95200989 -0.43191528 40.00186157 -0.45318604 C45.99765247 -0.45507192 49.45893574 -0.03873011 54 4 C56.48386059 7.72579089 56.3804212 9.58711402 56 14 C54.65968174 17.27633352 53.50665174 18.66285792 50.56201172 20.62231445 C45.67462486 22.51261768 41.32551218 22.37360562 36.1328125 22.29296875 C35.09808807 22.28872391 34.06336365 22.28447906 32.99728394 22.28010559 C29.70625319 22.26336996 26.41584434 22.22572649 23.125 22.1875 C20.8880297 22.17244658 18.65104977 22.15875933 16.4140625 22.14648438 C10.94227845 22.11604047 5.47183187 22.05730778 0 22 C0 14.74 0 7.48 0 0 Z " fill="#FEFEFE" transform="translate(574,39)"/>
<path d="M0 0 C0.66 0.66 1.32 1.32 2 2 C4.11955681 2.79494805 4.11955681 2.79494805 6.5625 3.4375 C7.45839844 3.70046875 8.35429688 3.9634375 9.27734375 4.234375 C10.97020661 4.71041678 12.67012012 5.1628535 14.37890625 5.578125 C20.95340153 7.36181415 24.54936433 10.97302302 29 16 C29.99 16.99 29.99 16.99 31 18 C34.32993034 14.17058011 36.05324525 9.62477778 38 5 C38.66 5 39.32 5 40 5 C39.52951235 17.46792261 31.36380633 27.33271739 23 36 C7.90274456 49.3037469 -10.39844573 55.2036707 -30.25 55.1875 C-31.07540283 55.18814453 -31.90080566 55.18878906 -32.7512207 55.18945312 C-39.30806058 55.13316575 -45.59106219 54.4327366 -52 53 C-51.67 52.01 -51.34 51.02 -51 50 C-50.13753662 50.16008545 -49.27507324 50.3201709 -48.38647461 50.48510742 C-27.00370517 53.73622564 -6.61890289 50.96927612 12 40 C12.91523437 39.2678125 13.83046875 38.535625 14.7734375 37.78125 C17 36 17 36 19 36 C19.66 34.68 20.32 33.36 21 32 C17.10580643 29.29431287 17.10580643 29.29431287 12.9375 27.0625 C11 26 11 26 8.75 23.625 C5.46964481 20.49375186 2.10720413 18.82429166 -2 17 C-2 16.34 -2 15.68 -2 15 C-3.32 14.34 -4.64 13.68 -6 13 C-4.31326082 8.50202887 -2.18326108 4.27113698 0 0 Z " fill="#D3D2D0" transform="translate(919,67)"/>
<path d="M0 0 C7.47473278 -0.0988118 14.94908612 -0.1714432 22.42431641 -0.21972656 C24.96767803 -0.23985272 27.51099333 -0.26715637 30.05419922 -0.30175781 C33.70812404 -0.3502297 37.36143756 -0.37295916 41.015625 -0.390625 C42.72362274 -0.42159271 42.72362274 -0.42159271 44.46612549 -0.45318604 C46.05732208 -0.45363922 46.05732208 -0.45363922 47.68066406 -0.45410156 C48.61332092 -0.46298401 49.54597778 -0.47186646 50.50689697 -0.48101807 C53.7703083 0.1486229 54.95848254 1.43224169 57 4 C57.4375 6.5625 57.4375 6.5625 57 9 C55.12139167 11.5048111 54.03898126 11.98700625 51 13 C49.32779029 13.08754798 47.65227801 13.11765995 45.9777832 13.11352539 C44.95695145 13.11344986 43.93611969 13.11337433 42.88435364 13.11329651 C41.78427475 13.10813522 40.68419586 13.10297394 39.55078125 13.09765625 C38.4230278 13.0962413 37.29527435 13.09482635 36.13334656 13.09336853 C32.52637088 13.0877647 28.91945696 13.07521153 25.3125 13.0625 C22.86914152 13.05748549 20.42578207 13.0529225 17.98242188 13.04882812 C11.98825741 13.03779403 5.99413918 13.02052679 0 13 C0 8.71 0 4.42 0 0 Z " fill="#F1F1F1" transform="translate(36,71)"/>
<path d="M0 0 C6.47783908 -0.07414761 12.95543121 -0.12860137 19.43359375 -0.16479492 C21.63741356 -0.17988291 23.84120335 -0.20035576 26.04492188 -0.22631836 C29.21231497 -0.26270058 32.37931111 -0.27972632 35.546875 -0.29296875 C37.02519806 -0.31619453 37.02519806 -0.31619453 38.53338623 -0.33988953 C39.4540387 -0.34011612 40.37469116 -0.34034271 41.32324219 -0.34057617 C42.53569611 -0.35056892 42.53569611 -0.35056892 43.77264404 -0.36076355 C46.58615868 0.09493978 47.95402397 1.0396051 50 3 C50.5 6 50.5 6 50 9 C47.1658275 11.7156219 45.20189821 12.37254312 41.32324219 12.34057617 C39.94226349 12.34023628 39.94226349 12.34023628 38.53338623 12.33988953 C37.54783752 12.32440567 36.56228882 12.30892181 35.546875 12.29296875 C34.53151672 12.28872391 33.51615845 12.28447906 32.47003174 12.28010559 C29.22975046 12.26332424 25.99009303 12.22567241 22.75 12.1875 C20.55209232 12.17245249 18.35417488 12.1587642 16.15625 12.14648438 C10.77059327 12.11342238 5.38540238 12.06164319 0 12 C0 8.04 0 4.08 0 0 Z " fill="#FDFDFD" transform="translate(37,39)"/>
<path d="M0 0 C2.28488136 2.93856021 4.24244408 5.96487002 6.13671875 9.16796875 C6.71357422 10.14314453 7.29042969 11.11832031 7.88476562 12.12304688 C8.77711914 13.63995117 8.77711914 13.63995117 9.6875 15.1875 C10.29400391 16.21037109 10.90050781 17.23324219 11.52539062 18.28710938 C16 25.8723021 16 25.8723021 16 27 C5.77 27 -4.46 27 -15 27 C-12.74921956 20.24765869 -12.74921956 20.24765869 -10.9765625 17.34375 C-10.40421875 16.39822266 -10.40421875 16.39822266 -9.8203125 15.43359375 C-9.22863281 14.47646484 -9.22863281 14.47646484 -8.625 13.5 C-8.23828125 12.86191406 -7.8515625 12.22382812 -7.453125 11.56640625 C-5.06300543 7.6443644 -2.57193547 3.80505522 0 0 Z " fill="#F4F4F4" transform="translate(198,47)"/>
<path d="M0 0 C1.10118164 -0.0309375 1.10118164 -0.0309375 2.22460938 -0.0625 C7.46150875 -0.09967409 11.03332469 0.81968285 15.6875 3.25 C16.3475 3.91 17.0075 4.57 17.6875 5.25 C15.35138427 8.26235976 13.04280526 10.41179532 9.6875 12.25 C6.2022374 12.54368203 2.96663957 12.51003349 -0.51098633 12.32202148 C-6.23676873 12.0586045 -8.71205681 13.0808058 -13.3125 16.25 C-17.80743119 16.25 -20.74913038 13.81894089 -24.3125 11.25 C-21.94156875 5.71782709 -17.56980094 3.61897443 -12.3125 1.25 C-8.2315389 0.06662619 -4.22130875 0.02918796 0 0 Z " fill="#96989F" transform="translate(887.3125,33.75)"/>
<path d="M0 0 C3.00197464 1.80118478 4.45166366 2.90332732 6 6 C6.70153846 13.13230769 6.70153846 13.13230769 3.625 16.9375 C-1.10105283 20.65082722 -5.12898604 20.5270044 -11 20 C-14.68623011 18.38727433 -15.75355 17.369675 -18 14 C-18.95801207 7.50680707 -18.95801207 7.50680707 -16.8203125 4.14453125 C-11.97061577 -0.73997192 -6.59867582 -1.221977 0 0 Z " fill="#FEFDFD" transform="translate(894,51)"/>
<path d="M0 0 C0.99 0.33 1.98 0.66 3 1 C3.33 1.99 3.66 2.98 4 4 C4.99 4.33 5.98 4.66 7 5 C7 6.32 7 7.64 7 9 C9.475 9.495 9.475 9.495 12 10 C12 10.66 12 11.32 12 12 C13.98 12.66 15.96 13.32 18 14 C18 14.66 18 15.32 18 16 C18.66 16 19.32 16 20 16 C21.35432675 17.31200404 22.68733482 18.64631404 24 20 C24.66 20.33 25.32 20.66 26 21 C25.67 22.32 25.34 23.64 25 25 C26.10373421 25.79226949 27.20800652 26.58378935 28.3125 27.375 C28.92738281 27.81585938 29.54226563 28.25671875 30.17578125 28.7109375 C31.7652392 29.83410907 33.38062171 30.92041447 35 32 C34.34 32 33.68 32 33 32 C32.505 32.99 32.505 32.99 32 34 C31.13375 33.505 30.2675 33.01 29.375 32.5 C25.89250377 30.9522239 23.75240542 30.73197104 20 31 C19.67 31.66 19.34 32.32 19 33 C13.72 31.68 8.44 30.36 3 29 C3 28.34 3 27.68 3 27 C0.36 26.67 -2.28 26.34 -5 26 C-5.66 24.35 -6.32 22.7 -7 21 C-8.98 21.66 -10.96 22.32 -13 23 C-13 22.34 -13 21.68 -13 21 C-13.66 21 -14.32 21 -15 21 C-15.33 21.99 -15.66 22.98 -16 24 C-16.33 23.34 -16.66 22.68 -17 22 C-16.22265625 20.2734375 -16.22265625 20.2734375 -15.0625 18.375 C-14.0415625 16.704375 -14.0415625 16.704375 -13 15 C-12.67 15.66 -12.34 16.32 -12 17 C-10.11235097 17.68472665 -10.11235097 17.68472665 -7.9375 18.125 C-7.20402344 18.29257812 -6.47054687 18.46015625 -5.71484375 18.6328125 C-5.14894531 18.75398438 -4.58304688 18.87515625 -4 19 C-4 19.99 -4 20.98 -4 22 C-2.85660156 22.12117188 -1.71320312 22.24234375 -0.53515625 22.3671875 C0.95578417 22.53597321 2.44666673 22.70527047 3.9375 22.875 C5.06961914 22.99294922 5.06961914 22.99294922 6.22460938 23.11328125 C8.15919299 23.33883808 10.08176019 23.66258974 12 24 C12.33 24.66 12.66 25.32 13 26 C14.88764903 26.68472665 14.88764903 26.68472665 17.0625 27.125 C17.79597656 27.29257812 18.52945313 27.46015625 19.28515625 27.6328125 C19.85105469 27.75398438 20.41695312 27.87515625 21 28 C21.66 26.68 22.32 25.36 23 24 C22.195625 23.731875 21.39125 23.46375 20.5625 23.1875 C19.716875 22.795625 18.87125 22.40375 18 22 C17.505 20.515 17.505 20.515 17 19 C15.68352881 18.30062468 14.34977849 17.63270867 13 17 C12.67 16.34 12.34 15.68 12 15 C10.30841604 14.27029712 8.6145642 13.54509559 6.90625 12.85546875 C4.04703689 11.57233828 1.57472578 9.77369998 -1 8 C-2.3191582 7.30570621 -3.64649406 6.62469505 -5 6 C-3.35 4.02 -1.7 2.04 0 0 Z " fill="#E0D4B2" transform="translate(839,19)"/>
<path d="M0 0 C1.44096586 0.42594588 2.87768712 0.86626633 4.3125 1.3125 C5.51326172 1.67794922 5.51326172 1.67794922 6.73828125 2.05078125 C9.13446933 3.05643532 10.22501848 4.15167214 12 6 C13.670625 6.6496875 13.670625 6.6496875 15.375 7.3125 C19.54150113 9.25207811 21.17964951 11.43745202 24 15 C26.6526218 16.84475674 26.6526218 16.84475674 29 18 C28.6875 19.9375 28.6875 19.9375 28 22 C23.82412255 23.39195915 21.86525224 21.82323219 18 20 C18 19.34 18 18.68 18 18 C16.845 18.04125 15.69 18.0825 14.5 18.125 C10.05518699 18.14087433 6.26275869 17.21793105 2 16 C2 15.01 2 14.02 2 13 C-0.64 12.34 -3.28 11.68 -6 11 C-5.55530671 5.96014269 -3.28656638 3.62365012 0 0 Z " fill="#FCFDE1" transform="translate(833,25)"/>
<path d="M0 0 C1.37562854 1.28965176 2.70766393 2.62689293 4 4 C4.99 4.66 5.98 5.32 7 6 C7 6.66 7 7.32 7 8 C6.34 8 5.68 8 5 8 C5 8.66 5 9.32 5 10 C-1.79129398 14.27317374 -7.93174491 15.49393146 -15.8125 15.5 C-16.62436768 15.50580078 -17.43623535 15.51160156 -18.27270508 15.51757812 C-23.23793963 15.41536022 -26.6537249 14.63156109 -31 12 C-30.02133662 10.85373678 -29.04205413 9.70800212 -28.0625 8.5625 C-27.51722656 7.92441406 -26.97195313 7.28632812 -26.41015625 6.62890625 C-25.63204305 5.73008851 -24.84063472 4.84063472 -24 4 C-20.27760948 3.75214662 -16.5602068 3.61559162 -12.83203125 3.4765625 C-8.10156774 2.88826836 -4.65301323 0 0 0 Z " fill="#91949B" transform="translate(904,73)"/>
<path d="M0 0 C2.31 0.66 4.62 1.32 7 2 C7 2.66 7 3.32 7 4 C8.65 4.33 10.3 4.66 12 5 C12 5.66 12 6.32 12 7 C14.64 7.33 17.28 7.66 20 8 C20 8.66 20 9.32 20 10 C20.57234375 10.28617188 21.1446875 10.57234375 21.734375 10.8671875 C26.8671875 13.43359375 26.8671875 13.43359375 32 16 C28.25 21.75 28.25 21.75 26 24 C22.82602591 23.79740591 20.73114856 23.64990983 18.3125 21.5 C17.879375 21.005 17.44625 20.51 17 20 C16.01 19.67 15.02 19.34 14 19 C13.278125 18.236875 12.55625 17.47375 11.8125 16.6875 C8.50132812 13.52349132 5.14607216 11.84155562 1 10 C1 9.34 1 8.68 1 8 C-0.32 7.34 -1.64 6.68 -3 6 C-1.125 1.125 -1.125 1.125 0 0 Z " fill="#FBFDD9" transform="translate(916,74)"/>
<path d="M0 0 C4.92503607 -0.35178829 7.68796574 0.69904054 12 3 C11.79883546 5.60913409 11.56552831 8.20832369 11.3125 10.8125 C11.25900391 11.55048828 11.20550781 12.28847656 11.15039062 13.04882812 C10.92578125 15.20703125 10.92578125 15.20703125 10 19 C7.59375 20.9375 7.59375 20.9375 5 22 C4.071875 22.391875 3.14375 22.78375 2.1875 23.1875 C1.465625 23.455625 0.74375 23.72375 0 24 C-3.90467636 18.38702773 -5.13459886 13.82941235 -4 7 C-2.90771023 4.35402219 -1.64877222 2.37011007 0 0 Z " fill="#A09898" transform="translate(859,49)"/>
<path d="M0 0 C0.66 0.66 1.32 1.32 2 2 C4.11955681 2.79494805 4.11955681 2.79494805 6.5625 3.4375 C7.45839844 3.70046875 8.35429688 3.9634375 9.27734375 4.234375 C10.97020661 4.71041678 12.67012012 5.1628535 14.37890625 5.578125 C20.95340153 7.36181415 24.54936433 10.97302302 29 16 C29.66 16.66 30.32 17.32 31 18 C31 21 31 21 30 23 C25.00786149 22.53198701 20.87036007 20.08284263 17 17 C17 16.34 17 15.68 17 15 C14.36 14.67 11.72 14.34 9 14 C9 13.34 9 12.68 9 12 C7.35 11.67 5.7 11.34 4 11 C4 10.34 4 9.68 4 9 C2.35 8.67 0.7 8.34 -1 8 C-2.2077558 4.37673261 -1.54311128 3.35853631 0 0 Z " fill="#DBD1AA" transform="translate(919,67)"/>
<path d="M0 0 C3.81717468 4.2413052 3.69398126 9.56552934 4 15 C3.01 15.33 2.02 15.66 1 16 C0.87625 16.763125 0.7525 17.52625 0.625 18.3125 C0 21 0 21 -2 24 C-3.98 23.34 -5.96 22.68 -8 22 C-8 21.34 -8 20.68 -8 20 C-9.32 19.67 -10.64 19.34 -12 19 C-11.855625 18.175 -11.71125 17.35 -11.5625 16.5 C-10.96998012 13.26036687 -10.96998012 13.26036687 -10.921875 10.99609375 C-10.76203832 7.98773918 -10.62642422 5.80734798 -8.7421875 3.37890625 C-5.63674933 0.62458546 -4.21605792 0 0 0 Z " fill="#A09695" transform="translate(918,51)"/>
<path d="M0 0 C0.99 0.33 1.98 0.66 3 1 C3.33 1.99 3.66 2.98 4 4 C4.99 4.33 5.98 4.66 7 5 C7 6.32 7 7.64 7 9 C8.65 9.33 10.3 9.66 12 10 C12 10.66 12 11.32 12 12 C13.98 12.66 15.96 13.32 18 14 C18 14.66 18 15.32 18 16 C18.66 16 19.32 16 20 16 C21.35432675 17.31200404 22.68733482 18.64631404 24 20 C24.66 20.33 25.32 20.66 26 21 C25.01 23.475 25.01 23.475 24 26 C23.67 25.34 23.34 24.68 23 24 C22.175 23.690625 21.35 23.38125 20.5 23.0625 C19.2625 22.5365625 19.2625 22.5365625 18 22 C17.67 21.01 17.34 20.02 17 19 C15.68352881 18.30062468 14.34977849 17.63270867 13 17 C12.67 16.34 12.34 15.68 12 15 C10.30841604 14.27029712 8.6145642 13.54509559 6.90625 12.85546875 C4.04703689 11.57233828 1.57472578 9.77369998 -1 8 C-2.3191582 7.30570621 -3.64649406 6.62469505 -5 6 C-3.35 4.02 -1.7 2.04 0 0 Z " fill="#DCF5C6" transform="translate(839,19)"/>
<path d="M0 0 C0 4.14998726 -2.14740855 6.67868171 -4.3125 10.0625 C-12.44151428 23.30627555 -13.51505034 35.5953167 -11 51 C-11.99 51.495 -11.99 51.495 -13 52 C-17.64141664 43.95487782 -17.04306706 31.80090424 -15 23 C-11.59645862 13.56988723 -8.00396155 6.18487938 0 0 Z " fill="#D2D2D2" transform="translate(831,25)"/>
<path d="M0 0 C2.31 0.33 4.62 0.66 7 1 C7 1.66 7 2.32 7 3 C7.61746094 3.09796875 8.23492188 3.1959375 8.87109375 3.296875 C18.25806266 4.95423937 25.45112969 8.21788657 33 14 C32.67 14.99 32.34 15.98 32 17 C27.00786149 16.53198701 22.87036007 14.08284263 19 11 C19 10.34 19 9.68 19 9 C16.36 8.67 13.72 8.34 11 8 C11 7.34 11 6.68 11 6 C9.35 5.67 7.7 5.34 6 5 C6 4.34 6 3.68 6 3 C5.195625 2.87625 4.39125 2.7525 3.5625 2.625 C2.716875 2.41875 1.87125 2.2125 1 2 C0.67 1.34 0.34 0.68 0 0 Z " fill="#E8EAB6" transform="translate(917,73)"/>
<path d="M0 0 C0.70125 -0.01675781 1.4025 -0.03351562 2.125 -0.05078125 C2.74375 0.06910156 3.3625 0.18898437 4 0.3125 C6 3.3125 6 3.3125 5.75 5.875 C5 8.3125 5 8.3125 3 10.3125 C-3.07053942 10.86436722 -3.07053942 10.86436722 -6 9.125 C-7 7.3125 -7 7.3125 -6.8125 4.75 C-5.48756096 0.77518288 -3.98220449 0.02196069 0 0 Z " fill="#11141D" transform="translate(740,55.6875)"/>
<path d="M0 0 C0.66 0.33 1.32 0.66 2 1 C1.01 1.33 0.02 1.66 -1 2 C-1 2.66 -1 3.32 -1 4 C-1.99 4 -2.98 4 -4 4 C-4.26949463 4.5969165 -4.53898926 5.19383301 -4.81665039 5.80883789 C-5.99777872 7.99588694 -7.146614 9.35211614 -8.93359375 11.05859375 C-9.7834082 11.88520508 -9.7834082 11.88520508 -10.65039062 12.72851562 C-11.83780533 13.86402149 -13.02530476 14.99943877 -14.21289062 16.13476562 C-17.40337498 19.23833553 -19.79395102 22.09374766 -22 26 C-24.1875 27.3125 -24.1875 27.3125 -26 28 C-24.17583715 22.26691676 -22.83692305 18.41205223 -18.125 14.5625 C-15.76064108 12.57812733 -13.95665713 10.94076474 -12.125 8.4375 C-8.82737804 4.65493363 -4.54220113 2.10492248 0 0 Z " fill="#272728" transform="translate(694,14)"/>
<path d="M0 0 C2.5 1.375 2.5 1.375 5 3 C5 3.66 5 4.32 5 5 C5.556875 5.103125 6.11375 5.20625 6.6875 5.3125 C10.92199618 6.57140427 14.65224742 9.14821077 18 12 C18 12.66 18 13.32 18 14 C18.86625 14.1546875 18.86625 14.1546875 19.75 14.3125 C22.348115 15.10636847 23.89545449 16.30278588 26 18 C26.99 18.66 27.98 19.32 29 20 C27.68 20.99 26.36 21.98 25 23 C25 21.68 25 20.36 25 19 C24.01 19 23.02 19 22 19 C20.98717195 18.01299476 19.98921603 17.01066891 19 16 C17.3819236 15.11397486 15.73260063 14.28356601 14.0625 13.5 C10.7547973 11.94343402 7.76773108 10.41454034 5 8 C5 7.34 5 6.68 5 6 C4.34 6 3.68 6 3 6 C0 2.53846154 0 2.53846154 0 0 Z " fill="#CFEDB8" transform="translate(912,79)"/>
<path d="M0 0 C0.33 0.66 0.66 1.32 1 2 C3.02463255 2.65213292 3.02463255 2.65213292 5 3 C5 3.66 5 4.32 5 5 C7.475 5.99 7.475 5.99 10 7 C9.649375 7.94875 9.29875 8.8975 8.9375 9.875 C7.64973223 12.87060172 7.64973223 12.87060172 9 15 C7.35 14.67 5.7 14.34 4 14 C4.66 13.67 5.32 13.34 6 13 C3.74259377 10.66475218 1.7194239 8.81294927 -1 7 C-1 6.34 -1 5.68 -1 5 C-1.66 4.67 -2.32 4.34 -3 4 C-2.01 2.68 -1.02 1.36 0 0 Z " fill="#C7CEB5" transform="translate(905,68)"/>
<path d="M0 0 C0.804375 0.309375 1.60875 0.61875 2.4375 0.9375 C6.0776663 2.02316363 9.37429648 2.40363796 13.14453125 2.65625 C14.06298828 2.82640625 14.06298828 2.82640625 15 3 C15.33 3.66 15.66 4.32 16 5 C18.01669827 6.13350534 18.01669827 6.13350534 20 7 C19.01 7.495 19.01 7.495 18 8 C20.475 8.495 20.475 8.495 23 9 C23 9.33 23 9.66 23 10 C20.87465341 9.85930804 18.74972471 9.71229079 16.625 9.5625 C15.44164062 9.48128906 14.25828125 9.40007813 13.0390625 9.31640625 C10 9 10 9 8 8 C8 7.01 8 6.02 8 5 C5.36 4.34 2.72 3.68 0 3 C0 2.01 0 1.02 0 0 Z " fill="#F2F2C5" transform="translate(827,33)"/>
<path d="M0 0 C4.87664009 -0.34833144 7.77050005 0.58314288 12 3 C11.34 4.32 10.68 5.64 10 7 C6.37 6.34 2.74 5.68 -1 5 C-1.66 8.96 -2.32 12.92 -3 17 C-3.33 17 -3.66 17 -4 17 C-4.50604984 10.01370081 -4.0333905 5.79799884 0 0 Z " fill="#ABA094" transform="translate(859,49)"/>
<path d="M0 0 C0.33 0.99 0.66 1.98 1 3 C0.26394531 3.53109375 -0.47210937 4.0621875 -1.23046875 4.609375 C-2.20628906 5.31578125 -3.18210937 6.0221875 -4.1875 6.75 C-5.63189453 7.79414063 -5.63189453 7.79414063 -7.10546875 8.859375 C-8.9933849 10.2555667 -10.85602064 11.68680726 -12.6875 13.15625 C-15.01973075 15.01573127 -17.41300337 16.52171621 -20 18 C-17.34539754 11.80592758 -7.29893621 0 0 0 Z " fill="#DCD9D4" transform="translate(847,11)"/>
<path d="M0 0 C3.83907326 -0.21937561 6.59369827 0.15875582 10 2 C11.3125 4.125 11.3125 4.125 12 6 C11.01 7.485 11.01 7.485 10 9 C8.02 8.34 6.04 7.68 4 7 C4 6.34 4 5.68 4 5 C2.68 4.67 1.36 4.34 0 4 C0 2.68 0 1.36 0 0 Z " fill="#A7A28B" transform="translate(906,66)"/>
<path d="M0 0 C1.2375 0.2475 2.475 0.495 3.75 0.75 C3.028125 1.306875 2.30625 1.86375 1.5625 2.4375 C-1.22457299 4.72909334 -3.73641528 7.16459857 -6.25 9.75 C-7.57 9.09 -8.89 8.43 -10.25 7.75 C-8.03798211 2.58862492 -5.93310664 -0.74425896 0 0 Z " fill="#BABABA" transform="translate(879.25,75.25)"/>
<path d="M0 0 C4.72106954 2.92370804 9.39344485 5.89762612 14 9 C15.56208553 10.0422881 17.12461229 11.08391513 18.6875 12.125 C21.125 13.75 23.5625 15.375 26 17 C26 17.66 26 18.32 26 19 C26.99 19.33 27.98 19.66 29 20 C24.85837086 19.53981898 22.75182176 19.14493915 20 16 C19.01 15.67 18.02 15.34 17 15 C16.278125 14.236875 15.55625 13.47375 14.8125 12.6875 C11.50132812 9.52349132 8.14607216 7.84155562 4 6 C4 5.34 4 4.68 4 4 C2.68 3.34 1.36 2.68 0 2 C0 1.34 0 0.68 0 0 Z " fill="#E2F7C6" transform="translate(913,78)"/>
<path d="M0 0 C0.66 0.66 1.32 1.32 2 2 C4.15404082 2.79376921 4.15404082 2.79376921 6.625 3.4375 C11.20234098 4.75954769 15.62834879 6.09237038 20 8 C20.33 8.99 20.66 9.98 21 11 C19.68 11 18.36 11 17 11 C17 10.34 17 9.68 17 9 C14.36 8.67 11.72 8.34 9 8 C9 7.34 9 6.68 9 6 C5.7 5.34 2.4 4.68 -1 4 C-0.67 2.68 -0.34 1.36 0 0 Z " fill="#D3BBA6" transform="translate(919,67)"/>
<path d="M0 0 C0.33 0.99 0.66 1.98 1 3 C0.443125 3.0825 -0.11375 3.165 -0.6875 3.25 C-3.92383975 4.2996237 -5.64780209 5.52065626 -8 8 C-8.72083017 10.73184188 -8.85754381 13.15087629 -9 16 C-9.33 16 -9.66 16 -10 16 C-10.33 12.37 -10.66 8.74 -11 5 C-3.375 0 -3.375 0 0 0 Z " fill="#B7B6B6" transform="translate(917,48)"/>
<path d="M0 0 C1.32 0.33 2.64 0.66 4 1 C4 1.66 4 2.32 4 3 C5.98 3.66 7.96 4.32 10 5 C10 5.66 10 6.32 10 7 C10.66 7 11.32 7 12 7 C13.35432675 8.31200404 14.68733482 9.64631404 16 11 C16.66 11.33 17.32 11.66 18 12 C17.34 13.32 16.68 14.64 16 16 C16 15.34 16 14.68 16 14 C15.34 14 14.68 14 14 14 C12.375 12.625 12.375 12.625 11 11 C11 10.34 11 9.68 11 9 C10.4225 8.731875 9.845 8.46375 9.25 8.1875 C6.94449957 6.97070811 4.97943808 5.69666121 3 4 C3 3.34 3 2.68 3 2 C2.01 2 1.02 2 0 2 C0 1.34 0 0.68 0 0 Z " fill="#BFE8B3" transform="translate(847,28)"/>
<path d="M0 0 C3.01217112 0.64449607 5.51655836 1.65022182 8.25 3.0625 C8.95640625 3.42472656 9.6628125 3.78695312 10.390625 4.16015625 C10.92171875 4.43730469 11.4528125 4.71445312 12 5 C11.01 5.495 11.01 5.495 10 6 C9.67 6.66 9.34 7.32 9 8 C8.13375 7.525625 7.2675 7.05125 6.375 6.5625 C3.14612626 5.06765105 0.50966174 4.41781687 -3 4 C-2.01 2.68 -1.02 1.36 0 0 Z " fill="#C9CFB7" transform="translate(862,45)"/>
<path d="M0 0 C3.6181929 1.95577995 5.56417017 3.75222689 8 7 C9.65532623 8.01866229 11.32260138 9.01810813 13 10 C14.36984198 11.29579647 15.7151049 12.61992749 17 14 C13.83548038 13.36567062 11.48312221 12.26817072 8.75 10.5625 C7.69039062 9.91474609 7.69039062 9.91474609 6.609375 9.25390625 C6.07828125 8.84011719 5.5471875 8.42632812 5 8 C5 7.34 5 6.68 5 6 C4.34 6 3.68 6 3 6 C0 2.53846154 0 2.53846154 0 0 Z " fill="#C0E6AE" transform="translate(912,79)"/>
<path d="M0 0 C0.66 0.33 1.32 0.66 2 1 C1.01 2.485 1.01 2.485 0 4 C2.31 5.98 4.62 7.96 7 10 C4 11 4 11 1.95703125 10.00390625 C1.24933594 9.52824219 0.54164063 9.05257812 -0.1875 8.5625 C-0.90292969 8.08941406 -1.61835937 7.61632813 -2.35546875 7.12890625 C-2.89816406 6.75636719 -3.44085937 6.38382813 -4 6 C-1.125 1.125 -1.125 1.125 0 0 Z " fill="#A1BA9D" transform="translate(867,39)"/>
<path d="M0 0 C1.32 0 2.64 0 4 0 C4 0.66 4 1.32 4 2 C5.175625 2.4640625 5.175625 2.4640625 6.375 2.9375 C9 4 9 4 11 5 C11.625 8.0625 11.625 8.0625 12 11 C10.35 10.67 8.7 10.34 7 10 C7.66 9.67 8.32 9.34 9 9 C6.74259377 6.66475218 4.7194239 4.81294927 2 3 C2 2.34 2 1.68 2 1 C1.34 0.67 0.68 0.34 0 0 Z " fill="#ADCBA4" transform="translate(902,72)"/>
<path d="M0 0 C3.96 0 7.92 0 12 0 C11.34 0.66 10.68 1.32 10 2 C11.65 2.33 13.3 2.66 15 3 C15 3.33 15 3.66 15 4 C12.87465341 3.85930804 10.74972471 3.71229079 8.625 3.5625 C7.44164062 3.48128906 6.25828125 3.40007813 5.0390625 3.31640625 C2 3 2 3 0 2 C0 1.34 0 0.68 0 0 Z " fill="#ECEABE" transform="translate(835,39)"/>
<path d="M0 0 C0.66 0.33 1.32 0.66 2 1 C-1.82042691 5.1842771 -4.32976351 7.64994369 -10 9 C-10 6 -10 6 -8 3 C-6.33333333 3 -4.66666667 3 -3 3 C-1.18523997 1.60414215 -1.18523997 1.60414215 0 0 Z " fill="#DEDEDE" transform="translate(929,43)"/>
<path d="M0 0 C0.33 1.32 0.66 2.64 1 4 C-0.32 4.33 -1.64 4.66 -3 5 C-3 4.01 -3 3.02 -3 2 C-3.66 2.66 -4.32 3.32 -5 4 C-6.32 4 -7.64 4 -9 4 C-9 3.34 -9 2.68 -9 2 C-8.34 2 -7.68 2 -7 2 C-7 1.34 -7 0.68 -7 0 C-4.3333581 -1.33332095 -2.83319697 -0.67102033 0 0 Z " fill="#DBDBDB" transform="translate(859,71)"/>
<path d="M0 0 C0.66 1.32 1.32 2.64 2 4 C0.75539217 4.67667998 -0.49596896 5.34094719 -1.75 6 C-2.79414062 6.556875 -2.79414062 6.556875 -3.859375 7.125 C-6 8 -6 8 -10 8 C-8.59794495 5.19588991 -6.73272707 4.46169122 -4 3 C-1.6875 2.3125 -1.6875 2.3125 0 2 C0 1.34 0 0.68 0 0 Z " fill="#BCBCBC" transform="translate(869,66)"/>
<path d="M0 0 C5.95507399 0.3916035 10.62819824 1.37124595 16 4 C16 4.66 16 5.32 16 6 C10.72 4.68 5.44 3.36 0 2 C0 1.34 0 0.68 0 0 Z " fill="#D7BCAB" transform="translate(842,46)"/>
<path d="M0 0 C0.99 0.33 1.98 0.66 3 1 C3.33 1.99 3.66 2.98 4 4 C4.99 4.33 5.98 4.66 7 5 C6.67 6.32 6.34 7.64 6 9 C4.68 8.34 3.36 7.68 2 7 C2 6.01 2 5.02 2 4 C1.01 4 0.02 4 -1 4 C-0.67 2.68 -0.34 1.36 0 0 Z " fill="#BEE8B3" transform="translate(839,19)"/>
<path d="M0 0 C0.7734375 0.61875 0.7734375 0.61875 1.5625 1.25 C4.59072766 3.42411217 7.74424681 5.18429149 11 7 C10.67 7.66 10.34 8.32 10 9 C8.02 8.34 6.04 7.68 4 7 C4 6.34 4 5.68 4 5 C2.68 4.67 1.36 4.34 0 4 C0 2.68 0 1.36 0 0 Z " fill="#B6B99B" transform="translate(906,66)"/>
<path d="M0 0 C4.87664009 -0.34833144 7.77050005 0.58314288 12 3 C11.67 3.66 11.34 4.32 11 5 C8.03 4.505 8.03 4.505 5 4 C5 3.34 5 2.68 5 2 C3.02 2 1.04 2 -1 2 C-0.67 1.34 -0.34 0.68 0 0 Z " fill="#B4B599" transform="translate(859,49)"/>
<path d="M0 0 C0.66 0 1.32 0 2 0 C1.0360896 2.15026166 0.28912076 3.74701933 -1.5 5.3125 C-3.46219878 7.51997362 -3.6995218 9.2971676 -4.1875 12.1875 C-4.34605469 13.08855469 -4.50460937 13.98960938 -4.66796875 14.91796875 C-4.77753906 15.60503906 -4.88710938 16.29210937 -5 17 C-5.33 17 -5.66 17 -6 17 C-6.4540821 10.5293301 -5.65288056 7.37188318 -2 2 C-1.34 1.34 -0.68 0.68 0 0 Z " fill="#236AB6" transform="translate(723,48)"/>
<path d="M0 0 C0.99 0.33 1.98 0.66 3 1 C2.07506212 4.78383679 1.60628829 6.56693694 -1.625 8.875 C-2.40875 9.24625 -3.1925 9.6175 -4 10 C-2.8905928 6.51329166 -1.73662334 3.22515763 0 0 Z " fill="#373737" transform="translate(672,32)"/>
<path d="M0 0 C1.32 0.99 2.64 1.98 4 3 C2.35 4.65 0.7 6.3 -1 8 C-1.66 7.67 -2.32 7.34 -3 7 C-1.125 1.125 -1.125 1.125 0 0 Z " fill="#DFDFDF" transform="translate(869,83)"/>
<path d="M0 0 C6.02536998 -0.602537 6.02536998 -0.602537 8.80078125 1.11328125 C10.25599455 2.34621853 11.63479157 3.66808933 13 5 C11.68 5.33 10.36 5.66 9 6 C8.34 5.01 7.68 4.02 7 3 C3.44327821 1.7811879 3.44327821 1.7811879 0 1 C0 0.67 0 0.34 0 0 Z " fill="#F7F8CB" transform="translate(843,40)"/>
<path d="M0 0 C0.66 0.33 1.32 0.66 2 1 C0.02 3.31 -1.96 5.62 -4 8 C-4.99 7.67 -5.98 7.34 -7 7 C-4.78071806 4.09197539 -3.07030857 2.04687238 0 0 Z " fill="#363737" transform="translate(687,18)"/>
<path d="M0 0 C0.33 0 0.66 0 1 0 C1 3.96 1 7.92 1 12 C-2 8 -2 8 -1.75 4.3125 C-1 1 -1 1 0 0 Z " fill="#1C1C1D" transform="translate(666,51)"/>
<path d="M0 0 C7.5273523 2.3107221 7.5273523 2.3107221 9.5 5.1875 C9.665 5.785625 9.83 6.38375 10 7 C8.68 6.67 7.36 6.34 6 6 C6 5.34 6 4.68 6 4 C4.02 3.34 2.04 2.68 0 2 C0 1.34 0 0.68 0 0 Z " fill="#EFFDD4" transform="translate(844,31)"/>
<path d="M0 0 C2.64 0.33 5.28 0.66 8 1 C8 1.66 8 2.32 8 3 C8.66 3.33 9.32 3.66 10 4 C6.39703406 4.41176754 5.21597933 4.1535853 2.1875 2 C1.465625 1.34 0.74375 0.68 0 0 Z " fill="#F5F9C7" transform="translate(928,81)"/>
<path d="M0 0 C4.455 0.99 4.455 0.99 9 2 C9 2.66 9 3.32 9 4 C6.36 3.67 3.72 3.34 1 3 C0.67 2.01 0.34 1.02 0 0 Z " fill="#D8C0AC" transform="translate(833,42)"/>
<path d="M0 0 C1.32 0 2.64 0 4 0 C4 0.66 4 1.32 4 2 C4.66 2 5.32 2 6 2 C6.66 3.32 7.32 4.64 8 6 C5.5625 5.1875 5.5625 5.1875 3 4 C2.67 3.01 2.34 2.02 2 1 C1.34 0.67 0.68 0.34 0 0 Z " fill="#A2B79A" transform="translate(902,72)"/>
</svg>
