<?xml version="1.0" encoding="UTF-8"?>
<svg version="1.1" xmlns="http://www.w3.org/2000/svg" width="300" height="300">
<path d="M0 0 C99 0 198 0 300 0 C300 99 300 198 300 300 C201 300 102 300 0 300 C0 201 0 102 0 0 Z " fill="#FDFDFD" transform="translate(0,0)"/>
<path d="M0 0 C3 0.25 3 0.25 5 2.25 C5.31884766 4.77197266 5.31884766 4.77197266 5.4140625 7.9140625 C5.45273438 9.03554687 5.49140625 10.15703125 5.53125 11.3125 C5.5621875 12.488125 5.593125 13.66375 5.625 14.875 C5.66367188 16.05835938 5.70234375 17.24171875 5.7421875 18.4609375 C5.83668845 21.39046691 5.92224558 24.31998597 6 27.25 C6.99128906 26.6003125 7.98257813 25.950625 9.00390625 25.28125 C12.91561334 23.05441951 16.48310868 22.62783765 20.9375 22.75 C21.99300049 22.76703979 21.99300049 22.76703979 23.06982422 22.78442383 C28.61723414 22.99214623 32.56380102 23.96352496 37 27.25 C38.051875 27.95125 39.10375 28.6525 40.1875 29.375 C45.03570934 33.77159532 47.57123643 39.23136615 48.484375 45.66015625 C48.83833152 54.69587966 47.27597461 61.62056781 41.0625 68.34765625 C33.88661021 74.96632732 26.69469066 76.52023528 17 76.25 C7.33281821 74.05825028 2.57178089 68.37092158 -2.765625 60.43359375 C-4.88405741 56.68611363 -5.12739292 53.31518215 -5.14526367 49.05419922 C-5.15483345 47.50271683 -5.15483345 47.50271683 -5.16459656 45.91989136 C-5.16626579 44.25411545 -5.16626579 44.25411545 -5.16796875 42.5546875 C-5.17129715 41.4108963 -5.17462555 40.2671051 -5.17805481 39.08865356 C-5.18311477 36.672876 -5.18546342 34.25709145 -5.18530273 31.84130859 C-5.18749564 28.1323714 -5.20567897 24.42372857 -5.22460938 20.71484375 C-5.22754212 18.36979269 -5.22952771 16.02474021 -5.23046875 13.6796875 C-5.23765427 12.56512177 -5.24483978 11.45055603 -5.25224304 10.30221558 C-5.24916641 9.2741983 -5.24608978 8.24618103 -5.24291992 7.18701172 C-5.24434494 6.27974335 -5.24576996 5.37247498 -5.24723816 4.43771362 C-4.83416042 0.7825505 -3.52696848 0.29391404 0 0 Z " fill="#080808" transform="translate(75,157.75)"/>
<path d="M0 0 C6.35857802 3.90504718 11.10702655 7.9962392 13.4453125 15.22265625 C14.96640704 22.83884089 15.31828486 30.48679553 11.18359375 37.296875 C10.79300781 37.85890625 10.40242188 38.4209375 10 39 C8.948125 40.5778125 8.948125 40.5778125 7.875 42.1875 C2.83617054 47.93270743 -5.2119831 50.67344682 -12.625 51.3125 C-20.47351505 51.19535798 -27.60263069 47.52288953 -33 42 C-38.70405462 34.37392697 -39.71591818 27.42625605 -39 18 C-37.61999368 11.27539295 -33.82084564 5.76236813 -28.265625 1.74609375 C-18.98077257 -3.82070936 -9.73913464 -4.76527675 0 0 Z " fill="#060606" transform="translate(169,182)"/>
<path d="M0 0 C3 -0.3125 3 -0.3125 6 0 C8 2 8 2 8.22705078 5.80712891 C8.22673346 7.4469742 8.21539681 9.08684017 8.1953125 10.7265625 C8.1924826 11.58937836 8.18965271 12.45219421 8.18673706 13.34115601 C8.17552333 16.1025772 8.15041684 18.8636765 8.125 21.625 C8.11497173 23.49478699 8.10584562 25.36457905 8.09765625 27.234375 C8.07558012 31.82304109 8.04104234 36.41146593 8 41 C10.53004631 39.43190823 13.05842295 37.86122599 15.5859375 36.2890625 C16.64735962 35.63176147 16.64735962 35.63176147 17.73022461 34.96118164 C23.08408151 31.62695103 28.24419187 28.10091535 33.3515625 24.3984375 C36.50365475 22.73405841 38.4826176 22.57633769 42 23 C44 25 44 25 44.36328125 27.4140625 C44 30 44 30 42.41796875 31.7734375 C41.68191406 32.30195313 40.94585937 32.83046875 40.1875 33.375 C38.97320312 34.25478516 38.97320312 34.25478516 37.734375 35.15234375 C33.21866067 38.20367643 28.64229853 41.14520333 24 44 C25.34675765 46.97977276 26.860867 49.13709317 29.1171875 51.49609375 C29.72433594 52.13740234 30.33148438 52.77871094 30.95703125 53.43945312 C31.58996094 54.09880859 32.22289062 54.75816406 32.875 55.4375 C43.9263656 67.02434413 43.9263656 67.02434413 44.25 71.3125 C44.1675 72.199375 44.085 73.08625 44 74 C40.57676249 76.0783942 40.57676249 76.0783942 38.04394531 75.73413086 C35.71385013 74.89722257 34.70708111 74.00920179 33.046875 72.19140625 C32.51344482 71.61342285 31.98001465 71.03543945 31.43041992 70.43994141 C30.87588135 69.82038574 30.32134277 69.20083008 29.75 68.5625 C28.89208862 67.62156494 28.89208862 67.62156494 28.0168457 66.66162109 C23.45322126 61.6135177 19.12768666 56.41213296 15 51 C12.69 51.66 10.38 52.32 8 53 C8.02356567 53.93851807 8.02356567 53.93851807 8.04760742 54.89599609 C8.10984675 57.72223931 8.14895462 60.54833861 8.1875 63.375 C8.21263672 64.35984375 8.23777344 65.3446875 8.26367188 66.359375 C8.27817383 67.77089844 8.27817383 67.77089844 8.29296875 69.2109375 C8.31653442 70.51490479 8.31653442 70.51490479 8.34057617 71.84521484 C8.22818604 72.55629395 8.1157959 73.26737305 8 74 C5 76 5 76 2.4375 75.8125 C0 75 0 75 -2 72 C-2.25396729 69.03991699 -2.25396729 69.03991699 -2.25878906 65.37304688 C-2.2622937 64.7044313 -2.26579834 64.03581573 -2.26940918 63.34693909 C-2.27820964 61.13743702 -2.27238346 58.92825531 -2.265625 56.71875 C-2.26697214 55.18322691 -2.26891308 53.64770424 -2.27142334 52.11218262 C-2.27437231 48.89424579 -2.27008429 45.67642001 -2.26074219 42.45849609 C-2.24934772 38.33237621 -2.25590841 34.20651652 -2.26788712 30.08040619 C-2.27511187 26.90970904 -2.27281497 23.73907364 -2.26763153 20.56837463 C-2.26629673 19.04692046 -2.26793682 17.5254607 -2.27259064 16.00401306 C-2.27766603 13.87817519 -2.26993176 11.75275953 -2.25878906 9.62695312 C-2.25719788 8.41688599 -2.25560669 7.20681885 -2.25396729 5.96008301 C-2 3 -2 3 0 0 Z " fill="#080808" transform="translate(193,158)"/>
<path d="M0 0 C0.94875 0.04125 1.8975 0.0825 2.875 0.125 C3.535 1.445 4.195 2.765 4.875 4.125 C6.4528125 3.135 6.4528125 3.135 8.0625 2.125 C14.31057096 -0.98238875 21.62347972 -1.16773869 28.27734375 0.85546875 C35.50401574 4.25380778 40.38298346 9.01163298 43.875 16.125 C45.6601585 21.52622986 45.13786083 27.44835367 45.17016602 33.0793457 C45.18173756 34.48667412 45.20227056 35.89395691 45.23168945 37.30102539 C45.27424409 39.33770455 45.29051043 41.37308857 45.30078125 43.41015625 C45.31536377 44.62582275 45.32994629 45.84148926 45.3449707 47.09399414 C44.875 50.125 44.875 50.125 43.09838867 52.04467773 C40.875 53.125 40.875 53.125 36.875 53.125 C34.53592344 49.61638516 34.61240857 48.10596152 34.56640625 43.953125 C34.54126953 42.73109375 34.51613281 41.5090625 34.49023438 40.25 C34.45529141 37.68233927 34.42399599 35.11462611 34.39648438 32.546875 C34.23374102 23.4223439 34.23374102 23.4223439 30.875 15.125 C27.38178957 11.80219008 24.58042792 10.84435078 19.875 10.625 C15.16957208 10.84435078 12.36821043 11.80219008 8.875 15.125 C4.34570828 22.80415887 5.40871721 31.59679028 5.34765625 40.25 C5.32574219 41.47203125 5.30382812 42.6940625 5.28125 43.953125 C5.27416016 45.0659082 5.26707031 46.17869141 5.25976562 47.32519531 C4.875 50.125 4.875 50.125 3.54492188 52.02246094 C1.875 53.125 1.875 53.125 -1.25 52.9375 C-2.19875 52.669375 -3.1475 52.40125 -4.125 52.125 C-5.32644213 49.72211573 -5.25812026 48.20660248 -5.27026367 45.5234375 C-5.27664352 44.56904785 -5.28302338 43.6146582 -5.28959656 42.63134766 C-5.29070938 41.59800293 -5.2918222 40.5646582 -5.29296875 39.5 C-5.29629715 38.44216309 -5.29962555 37.38432617 -5.30305481 36.29443359 C-5.30812356 34.05501745 -5.31046315 31.81559375 -5.31030273 29.57617188 C-5.31249096 26.13919734 -5.33065216 22.70254276 -5.34960938 19.265625 C-5.35254288 17.0937511 -5.35452796 14.92187567 -5.35546875 12.75 C-5.36265427 11.71665527 -5.36983978 10.68331055 -5.37724304 9.61865234 C-5.37416641 8.6642627 -5.37108978 7.70987305 -5.36791992 6.7265625 C-5.36934494 5.88432129 -5.37076996 5.04208008 -5.37223816 4.17431641 C-4.92905426 0.50083804 -3.51086766 0.14043471 0 0 Z " fill="#070707" transform="translate(89.125,77.875)"/>
<path d="M0 0 C3 -0.3125 3 -0.3125 6 0 C8.72273459 2.72273459 8.2530273 4.23338785 8.2734375 8.0390625 C8.2940625 9.25980469 8.3146875 10.48054687 8.3359375 11.73828125 C8.36174296 14.30592462 8.3801122 16.87365473 8.390625 19.44140625 C8.54548759 27.64052012 9.13107092 33.55789624 14.6875 39.9375 C18.42576669 41.65508199 21.88494192 42.33729984 26 42 C31.29981827 39.92775272 34.45208005 37.08839113 37 32 C37.46889744 28.65188295 37.46889744 28.65188295 37.44140625 25.01953125 C37.45461411 24.36546799 37.46782196 23.71140472 37.48143005 23.03752136 C37.52210519 20.96246961 37.54394635 18.88785873 37.5625 16.8125 C37.58629397 14.7265618 37.61436678 12.64103824 37.65428162 10.55534363 C37.68973365 8.67093614 37.70963204 6.78625521 37.72875977 4.90161133 C38 2 38 2 40 0 C43 -0.25 43 -0.25 46 0 C48.45012999 2.45012999 48.25571663 3.11329934 48.2746582 6.47802734 C48.28895622 7.86989761 48.28895622 7.86989761 48.30354309 9.28988647 C48.30263168 10.29508331 48.30172028 11.30028015 48.30078125 12.3359375 C48.30506638 13.36683502 48.3093515 14.39773254 48.31376648 15.45986938 C48.31951734 17.64381169 48.32000451 19.82777316 48.31567383 22.01171875 C48.31251935 25.35449972 48.33594512 28.69639141 48.36132812 32.0390625 C48.36360157 34.15885305 48.36430441 36.27864598 48.36328125 38.3984375 C48.372491 39.39958588 48.38170074 40.40073425 48.39118958 41.43222046 C48.38496078 42.36643829 48.37873199 43.30065613 48.37231445 44.26318359 C48.37294388 45.08321869 48.3735733 45.90325378 48.3742218 46.74813843 C47.91598891 49.50553266 46.81007149 50.91142 45 53 C42.625 52.75 42.625 52.75 40 52 C38.6875 49.9375 38.6875 49.9375 38 48 C37.34 48 36.68 48 36 48 C36 48.66 36 49.32 36 50 C29.05182648 53.08807712 22.81540812 54.5547506 15.38671875 52.15625 C8.69263227 49.14949795 3.05876023 44.89379382 0.1550293 37.99145508 C-2.36337269 30.7128495 -2.4158804 23.70024387 -2.3125 16.0625 C-2.31572266 14.84498047 -2.31894531 13.62746094 -2.32226562 12.37304688 C-2.26759068 3.40138603 -2.26759068 3.40138603 0 0 Z " fill="#070707" transform="translate(246,181)"/>
<path d="M0 0 C2.6875 -0.4375 2.6875 -0.4375 6 0 C11.38581246 5.52045777 13.61698228 13.06752208 16.30224609 20.16699219 C17.29332753 22.77057491 18.33341499 25.3537803 19.375 27.9375 C19.91666667 29.29166667 20.45833333 30.64583333 21 32 C23.84503704 28.6346317 25.25027524 25.16387796 26.8125 21.0625 C29.58779966 13.89430251 32.69789641 6.94378521 36 0 C39.375 -0.1875 39.375 -0.1875 43 0 C45 3 45 3 44.75024414 5.37060547 C43.98955541 8.03660534 43.075351 10.51681333 41.99609375 13.0703125 C41.5889917 14.0399292 41.18188965 15.0095459 40.76245117 16.00854492 C40.10660034 17.55119019 40.10660034 17.55119019 39.4375 19.125 C38.98930908 20.19016846 38.54111816 21.25533691 38.0793457 22.3527832 C36.72439211 25.57058767 35.36324546 28.7857008 34 32 C32.56120711 35.39528787 31.12321547 38.79090957 29.6875 42.1875 C29.36096436 42.959729 29.03442871 43.73195801 28.69799805 44.52758789 C25.57654584 51.94333853 22.71135519 59.45029961 19.87890625 66.98046875 C19.52699219 67.89441406 19.17507812 68.80835938 18.8125 69.75 C18.50957031 70.54921875 18.20664063 71.3484375 17.89453125 72.171875 C17 74 17 74 15 75 C12 75.25 12 75.25 9 75 C7 72 7 72 7.1484375 69.3125 C8.37251081 64.55096711 10.4824022 60.32008409 12.6484375 55.921875 C12.96296875 55.24640625 13.2775 54.5709375 13.6015625 53.875 C13.89369629 53.27429688 14.18583008 52.67359375 14.48681641 52.0546875 C15.72265967 47.10661094 13.51599671 42.38597446 11.63671875 37.859375 C11.16169922 36.70566406 10.68667969 35.55195312 10.19726562 34.36328125 C9.69904297 33.17089844 9.20082031 31.97851562 8.6875 30.75 C7.23960744 27.24820951 5.79238506 23.7461448 4.34619141 20.24365234 C3.48861731 18.1773249 2.62205049 16.11469036 1.74365234 14.05712891 C1.37578613 13.17976074 1.00791992 12.30239258 0.62890625 11.3984375 C0.30607666 10.64224121 -0.01675293 9.88604492 -0.34936523 9.10693359 C-1.38089736 5.76655 -0.87215619 3.34326538 0 0 Z " fill="#090909" transform="translate(140,78)"/>
<path d="M0 0 C3.16514915 0.3859938 3.58472796 0.85859189 5.5625 3.3125 C6.75953946 5.6585823 7.86155358 7.9791987 8.91796875 10.38671875 C9.22446854 11.0705513 9.53096832 11.75438385 9.84675598 12.4589386 C10.82097416 14.63647197 11.78558484 16.81810983 12.75 19 C13.41017747 20.48009879 14.07097774 21.95991996 14.73242188 23.43945312 C16.34968342 27.06062428 17.95834369 30.68550542 19.5625 34.3125 C20.09359375 33.2503125 20.6246875 32.188125 21.171875 31.09375 C23.296875 26.84375 23.296875 26.84375 25.421875 22.59375 C25.7739502 21.88814941 26.12602539 21.18254883 26.48876953 20.45556641 C27.20902992 19.01799348 27.93402968 17.58278605 28.66357422 16.14990234 C30.36651159 12.79330874 31.97725906 9.50989795 33.1875 5.9375 C34.5625 2.3125 34.5625 2.3125 36.5625 0.3125 C39.5625 0.0625 39.5625 0.0625 42.5625 0.3125 C43.2225 0.9725 43.8825 1.6325 44.5625 2.3125 C44.31432441 8.14462641 42.86200713 12.44397326 40.0625 17.5625 C36.29450088 24.75177645 32.90880317 32.06525305 29.62109375 39.48535156 C24.21799586 51.65700414 24.21799586 51.65700414 22.5625 53.3125 C20.3125 53.875 20.3125 53.875 17.5625 53.3125 C13.60239466 48.45502312 11.12558689 42.47138562 8.6875 36.75 C8.00123861 35.17133599 7.31371584 33.59321977 6.625 32.015625 C6.28339844 31.23123047 5.94179687 30.44683594 5.58984375 29.63867188 C3.48306763 24.86838601 1.23759918 20.16288408 -0.9921875 15.44921875 C-4.93306266 6.89645456 -4.93306266 6.89645456 -4.4375 2.3125 C-2.4375 0.3125 -2.4375 0.3125 0 0 Z " fill="#090909" transform="translate(9.4375,77.6875)"/>
<path d="M0 0 C3.75585079 1.89418449 6.33947964 4.52552697 8.20703125 8.29296875 C9.92675035 13.64546724 9.8150217 19.18509013 7.2421875 24.22265625 C4.05150484 28.4209229 0.85332157 30.68561156 -4.1328125 32.34765625 C-9.39047195 32.74446074 -12.69384092 32.24263771 -17.1328125 29.34765625 C-21.04349617 25.25921424 -23.97829336 21.83027999 -24.234375 16.05859375 C-24.00800835 10.2949505 -22.73628204 6.93131519 -18.80078125 2.72265625 C-13.44892265 -1.68918035 -6.53621796 -1.99917289 0 0 Z " fill="#FAFAFA" transform="translate(104.1328125,191.65234375)"/>
<path d="M0 0 C2.85534986 2.85534986 2.26013225 4.80511253 2.2746582 8.8046875 C2.27976913 9.50402405 2.28488007 10.2033606 2.29014587 10.92388916 C2.30407311 13.24101258 2.30308298 15.55783965 2.30078125 17.875 C2.30466613 19.48160921 2.30900037 21.08821738 2.31376648 22.69482422 C2.32123517 26.06416146 2.3209325 29.43339393 2.31567383 32.80273438 C2.30987468 37.12747529 2.3268175 41.45178857 2.3500185 45.77645874 C2.36472565 49.09467083 2.36563175 52.41277916 2.36250877 55.73101807 C2.36302339 57.32587533 2.36828737 58.92073818 2.37832069 60.51556396 C2.39061151 62.74243251 2.38393904 64.96845819 2.37231445 67.1953125 C2.37294388 68.46391113 2.3735733 69.73250977 2.3742218 71.03955078 C2.25072861 72.01649902 2.12723541 72.99344727 2 74 C-1 76 -1 76 -3.5625 75.8125 C-6 75 -6 75 -8 72 C-8.26069641 69.03991699 -8.26069641 69.03991699 -8.2746582 65.37304688 C-8.27976913 64.7044313 -8.28488007 64.03581573 -8.29014587 63.34693909 C-8.30404292 61.13745162 -8.30308529 58.92827597 -8.30078125 56.71875 C-8.30466772 55.18322636 -8.30900229 53.64770379 -8.31376648 52.11218262 C-8.32122861 48.89425165 -8.3209372 45.6764304 -8.31567383 42.45849609 C-8.30987474 38.332292 -8.32682044 34.20653614 -8.3500185 30.08040619 C-8.36473989 26.90970224 -8.36562982 23.7391067 -8.36250877 20.56837463 C-8.36302265 19.04691173 -8.36827279 17.52544287 -8.37832069 16.00401306 C-8.39063941 13.87802861 -8.38392233 11.7529232 -8.37231445 9.62695312 C-8.37294388 8.41688599 -8.3735733 7.20681885 -8.3742218 5.96008301 C-8 3 -8 3 -6.6368866 1.10534668 C-4.32378637 -0.45662937 -2.72732873 -0.34965753 0 0 Z " fill="#060606" transform="translate(199,55)"/>
<path d="M0 0 C3 0.25 3 0.25 5 2.25 C5.26069641 4.29258728 5.26069641 4.29258728 5.2746582 6.83569336 C5.28419022 7.78685532 5.29372223 8.73801727 5.30354309 9.71800232 C5.30263168 10.74820999 5.30172028 11.77841766 5.30078125 12.83984375 C5.30506638 13.89530899 5.3093515 14.95077423 5.31376648 16.03822327 C5.31951705 18.27344037 5.32000472 20.50867618 5.31567383 22.74389648 C5.31251605 26.17008305 5.33595706 29.5954048 5.36132812 33.02148438 C5.36360119 35.19010307 5.36430458 37.3587241 5.36328125 39.52734375 C5.372491 40.55552719 5.38170074 41.58371063 5.39118958 42.64305115 C5.38496078 43.59736526 5.37873199 44.55167938 5.37231445 45.53491211 C5.37294388 46.37493271 5.3735733 47.21495331 5.3742218 48.08042908 C4.911737 50.76170947 4.20008581 51.67946813 2 53.25 C-1.125 53.0625 -1.125 53.0625 -4 52.25 C-5.20144213 49.84711573 -5.13312026 48.33160248 -5.14526367 45.6484375 C-5.15164352 44.69404785 -5.15802338 43.7396582 -5.16459656 42.75634766 C-5.16570938 41.72300293 -5.1668222 40.6896582 -5.16796875 39.625 C-5.17129715 38.56716309 -5.17462555 37.50932617 -5.17805481 36.41943359 C-5.18312356 34.18001745 -5.18546315 31.94059375 -5.18530273 29.70117188 C-5.18749096 26.26419734 -5.20565216 22.82754276 -5.22460938 19.390625 C-5.22754288 17.2187511 -5.22952796 15.04687567 -5.23046875 12.875 C-5.23765427 11.84165527 -5.24483978 10.80831055 -5.25224304 9.74365234 C-5.24916641 8.7892627 -5.24608978 7.83487305 -5.24291992 6.8515625 C-5.24434494 6.00932129 -5.24576996 5.16708008 -5.24723816 4.29931641 C-4.8159587 0.72451198 -3.41863697 0.28488641 0 0 Z " fill="#020202" transform="translate(69,77.75)"/>
<path d="M0 0 C2.87029869 1.79393668 4.49131638 2.98263276 6 6 C6.58029015 13.07953977 6.58029015 13.07953977 4.1875 16.875 C0.01631865 20.92700474 0.01631865 20.92700474 -3.12109375 21.15234375 C-9.41702107 20.56840445 -9.41702107 20.56840445 -12.5 17.5625 C-14.95454243 13.36932335 -15.4189406 10.94349911 -15 6 C-10.96954107 -0.18003703 -7.06173502 -0.91473252 0 0 Z " fill="#F4F4F4" transform="translate(161,196)"/>
<path d="M0 0 C3.92878186 0.53976508 5.63519172 2.29668418 8.25 5.1875 C8.95640625 5.94417969 9.6628125 6.70085937 10.390625 7.48046875 C12.34512198 10.54030019 12.30945792 12.43607632 12 16 C9.91836944 17.26384713 8.52513785 18.01693993 6.0625 17.9375 C2.9312665 16.51421204 1.17520063 14.64551428 -1 12 C-1.8125 8.6875 -1.8125 8.6875 -2 6 C-1.01 5.34 -0.02 4.68 1 4 C0.67 2.68 0.34 1.36 0 0 Z " fill="#0E0E0E" transform="translate(225,216)"/>
<path d="M0 0 C2.75387823 0.89501042 3.96886237 1.34566714 5.5 3.8125 C5.27669287 7.45984979 5.11627165 9.19622835 2.5 11.8125 C-0.4375 12.1875 -0.4375 12.1875 -3.5 11.8125 C-5.4375 10.1875 -5.4375 10.1875 -6.5 7.8125 C-6.375 4.6875 -6.375 4.6875 -5.5 1.8125 C-2.5 -0.1875 -2.5 -0.1875 0 0 Z " fill="#0E0E0E" transform="translate(69.5,62.1875)"/>
<path d="M0 0 C0.33 0 0.66 0 1 0 C1.10807131 1.93627769 1.1856225 3.87427756 1.25 5.8125 C1.29640625 6.89144531 1.3428125 7.97039062 1.390625 9.08203125 C1 12 1 12 -0.84375 13.90625 C-3.62421012 15.31662832 -5.0777001 14.89292497 -8 14 C-8.33 12.68 -8.66 11.36 -9 10 C-8.2575 9.46375 -7.515 8.9275 -6.75 8.375 C-3.82649095 5.85015128 -2.06298806 3.24183838 0 0 Z " fill="#191919" transform="translate(182,219)"/>
<path d="M0 0 C2.5625 0.1875 2.5625 0.1875 4.5625 2.1875 C4.00694444 6.74305556 4.00694444 6.74305556 2.5625 8.1875 C0.0625 8.3125 0.0625 8.3125 -2.4375 8.1875 C-3.4375 7.1875 -3.4375 7.1875 -3.5625 4.1875 C-3.39891479 0.26145498 -3.39891479 0.26145498 0 0 Z " fill="#181818" transform="translate(156.4375,201.8125)"/>
<path d="M0 0 C0.33 0 0.66 0 1 0 C1.0825 0.78375 1.165 1.5675 1.25 2.375 C1.72806339 5.14749104 1.72806339 5.14749104 4.0625 6.3125 C4.701875 6.539375 5.34125 6.76625 6 7 C6 7.66 6 8.32 6 9 C5.34 9 4.68 9 4 9 C4 9.66 4 10.32 4 11 C1.6875 11.6875 1.6875 11.6875 -1 12 C-2.875 10.8125 -2.875 10.8125 -4 9 C-3.6875 6.8125 -3.6875 6.8125 -3 5 C-2.34 5 -1.68 5 -1 5 C-0.67 3.35 -0.34 1.7 0 0 Z " fill="#EBEBEB" transform="translate(152,204)"/>
<path d="M0 0 C1.32 0.66 2.64 1.32 4 2 C4.99 1.34 5.98 0.68 7 0 C6.54917531 1.46067199 6.08906463 2.91848032 5.625 4.375 C5.36976562 5.18710938 5.11453125 5.99921875 4.8515625 6.8359375 C4 9 4 9 2 11 C-0.26881841 7.91440696 -1.05451946 6.57790624 -0.6875 2.6875 C-0.460625 1.800625 -0.23375 0.91375 0 0 Z " fill="#EFEFEF" transform="translate(27,102)"/>
<path d="M0 0 C0.66 0.66 1.32 1.32 2 2 C0.92781239 3.63237552 -0.15821244 5.25566803 -1.25 6.875 C-2.15492188 8.23238281 -2.15492188 8.23238281 -3.078125 9.6171875 C-5.01272095 12.01577191 -6.29391877 12.71634608 -9 14 C-9.33 14.99 -9.66 15.98 -10 17 C-10.66 17 -11.32 17 -12 17 C-12.33 16.01 -12.66 15.02 -13 14 C-11.453125 13.0409375 -11.453125 13.0409375 -9.875 12.0625 C-5.36319646 8.8831028 -2.78655775 4.68509161 0 0 Z " fill="#DBDBDB" transform="translate(182,215)"/>
<path d="M0 0 C0.66 0.33 1.32 0.66 2 1 C0.06273348 5.58826282 -1.48864333 7.80528594 -6 10 C-5.49477778 5.62140745 -2.82172778 3.18348776 0 0 Z " fill="#E1E1E1" transform="translate(87,193)"/>
<path d="M0 0 C0.66 0.33 1.32 0.66 2 1 C-0.57784846 3.64752004 -2.91648098 5.94432065 -6 8 C-6.66 7.01 -7.32 6.02 -8 5 C-6.71475739 4.13619741 -5.42157581 3.28419631 -4.125 2.4375 C-3.04605469 1.72400391 -3.04605469 1.72400391 -1.9453125 0.99609375 C-1.30335938 0.66738281 -0.66140625 0.33867187 0 0 Z " fill="#E7E7E7" transform="translate(232,191)"/>
<path d="M0 0 C0.99 0.33 1.98 0.66 3 1 C2.625 3.4375 2.625 3.4375 2 6 C1.01 6.495 1.01 6.495 0 7 C-0.66 7.99 -1.32 8.98 -2 10 C-1.125 2.25 -1.125 2.25 0 0 Z " fill="#262626" transform="translate(132,194)"/>
<path d="M0 0 C0.33 0.66 0.66 1.32 1 2 C1.66 2 2.32 2 3 2 C2.8125 3.8125 2.8125 3.8125 2 6 C-0.5625 7.75 -0.5625 7.75 -3 9 C-2.01 6.03 -1.02 3.06 0 0 Z " fill="#242424" transform="translate(43,82)"/>
<path d="M0 0 C0.99 0.33 1.98 0.66 3 1 C2.01 1.33 1.02 1.66 0 2 C-1.21869929 4.50447516 -1.21869929 4.50447516 -2 7 C-2.66 5.68 -3.32 4.36 -4 3 C-2.1875 1.4375 -2.1875 1.4375 0 0 Z " fill="#E4E4E4" transform="translate(206,208)"/>
<path d="M0 0 C0.66 0.66 1.32 1.32 2 2 C1.01 2.495 1.01 2.495 0 3 C-0.309375 3.66 -0.61875 4.32 -0.9375 5 C-2 7 -2 7 -5 8 C-4.45773019 4.20411134 -2.79872437 2.52788007 0 0 Z " fill="#F0F0F0" transform="translate(118,223)"/>
<path d="M0 0 C0.99 0.33 1.98 0.66 3 1 C2.67 1.99 2.34 2.98 2 4 C-1.3 3.67 -4.6 3.34 -8 3 C-8 2.67 -8 2.34 -8 2 C-6.865625 1.855625 -5.73125 1.71125 -4.5625 1.5625 C-1.19222799 1.38828522 -1.19222799 1.38828522 0 0 Z " fill="#3B3B3B" transform="translate(161,193)"/>
<path d="M0 0 C1.9375 0.8125 1.9375 0.8125 4 2 C4.33 2.99 4.66 3.98 5 5 C3.35 4.67 1.7 4.34 0 4 C-0.33 3.01 -0.66 2.02 -1 1 C-0.67 0.67 -0.34 0.34 0 0 Z " fill="#191919" transform="translate(113,187)"/>
<path d="M0 0 C0.66 0.33 1.32 0.66 2 1 C1.34 2.32 0.68 3.64 0 5 C-0.99 5 -1.98 5 -3 5 C-3.33 4.34 -3.66 3.68 -4 3 C-2.68 2.01 -1.36 1.02 0 0 Z " fill="#151515" transform="translate(117,220)"/>
<path d="M0 0 C0.33 0 0.66 0 1 0 C1 1.98 1 3.96 1 6 C0.01 6.33 -0.98 6.66 -2 7 C-2.125 4.625 -2.125 4.625 -2 2 C-1.34 1.34 -0.68 0.68 0 0 Z " fill="#0F0F0F" transform="translate(132,204)"/>
<path d="M0 0 C1.52519276 0.08937803 3.04681929 0.24537146 4.5625 0.4375 C5.80193359 0.59025391 5.80193359 0.59025391 7.06640625 0.74609375 C7.70449219 0.82988281 8.34257812 0.91367188 9 1 C9 1.33 9 1.66 9 2 C6.03 2.66 3.06 3.32 0 4 C-0.33 3.01 -0.66 2.02 -1 1 C-0.67 0.67 -0.34 0.34 0 0 Z " fill="#D6D6D6" transform="translate(226,179)"/>
</svg>
